<svg xmlns="http://www.w3.org/2000/svg"><defs><font id="AnnieUseYourTelescope" horiz-adv-x="393"><font-face font-family="Annie Use Your Telescope" units-per-em="1024" panose-1="2 0 0 0 0 0 0 0 0 0" ascent="1049" descent="-419" alphabetic="0"/><glyph glyph-name="space" horiz-adv-x="384"/><glyph unicode="!" glyph-name="exclam" horiz-adv-x="158" d="M101-2Q77 13 68 30t-8 32 12 27 23 13 29-7 27-37q0-10-3-20t-10-19-16-15-21-6Zm9 60q-4 0-6-3t-2-7 2-8 6-2q9 2 9 9t-9 11ZM13 650q0 9 1 12t6 4 13 1 20 5l57-461q-2-1-9-3t-10-2q-12 0-19 4t-10 13-5 20-4 25q-1 5-3 26t-6 52-8 68-8 75-8 70-6 55v5q0 5-1 12t0 12 0 7Z"/><glyph unicode="&quot;" glyph-name="quotedbl" horiz-adv-x="216" d="M133 633v19q0 11 3 20t11 17 20 7q0-6 1-20t1-31 2-30 1-20q0-2 3-10t7-18 7-18 3-11q0-3-2-6t-6-6-6-5-6-3q-13 17-21 30t-12 27-5 26-1 32ZM19 604q0 13 1 32t8 36 18 30 30 13V545q-27 0-42 16t-15 43Z"/><glyph unicode="#" glyph-name="numbersign" horiz-adv-x="552" d="M217 167q-9-26-10-48t-1-40 4-30-2-18-16-5-38 12v116H29q6 12 24 22t39 18 36 12 17 5q4 21 4 42t-1 39 0 33 7 21H10v18l183 39v179q6-2 11-2 4-2 8-2t9-2q2-1 5-3t7-6 5-7 3-4V422h86v154h28l18-130 156-4q-1-2-4-7t-6-10-7-10-5-5q-8-2-26-6t-40-8-40-7-26-5V268h154v-18q-9-2-31-7t-47-11-46-12-30-9q-4-1-9-3t-9-6-8-6-3-4V19h-38v153h-28q-12 0-25-2t-24-1-15-1 1-1Zm100 212q-40 0-61-10t-31-31-10-49-1-64h12q9 0 20 2t20 1 13 2q4 1 10 3t13 6 10 6 5 5v129Z"/><glyph unicode="$" glyph-name="dollar" horiz-adv-x="480" d="M266 25q-28 2-66 4t-75 8-69 22-49 43l19 19q27-26 53-33t54-6 56 7 65 6v9q0 6 1 13t1 13 0 10q0 10-3 34t-6 52-6 53-4 34q-2 16-17 20t-36 6-46 1-45 7-35 23-14 48q0 41 16 68t38 49 48 39 44 39 27 50-2 70q19 12 24 12t6-12 5-37 16-64q12-6 33-14t43-16 36-18 15-20q0-13-3-23t-18-17q-10 14-21 21t-22 11-25 3-28-1V390q38 1 73-8t61-28 43-51 16-76q0-26-16-57t-40-58-53-46-55-22V-90h-39V25Zm24 320q0-63 4-122t20-121q2-1 5-1t5-1q15 0 32 17t34 39 26 45 13 35q4 30-9 50t-35 34-48 19-47 6ZM83 418q0-11 5-20t13-15 18-10 20-3q18 0 32 1t26 6 17 16 6 30q0 19-1 35t-4 33-6 34-10 38q-4-3-14-11t-23-20-27-26-25-29-19-30-8-29Z"/><glyph unicode="%" glyph-name="percent" horiz-adv-x="350" d="M283 595h37L49 7 14 19l269 576Zm-38-441q0 3 7 10t12 8q21 6 31-3t13-22-3-27-14-16-21 6-25 44ZM52 509v16q0 8 4 16t9 11 17 5q18 0 24-12t7-28q0-21-8-32t-33-25q-9 3-13 8t-5 12-2 14 0 15Z"/><glyph unicode="&amp;" glyph-name="ampersand" horiz-adv-x="509" d="M418 117q-39-57-95-87T199 0q-36 0-66 7T81 32 46 77t-13 69q0 25 9 57t23 64 34 59 42 41q-28 96-28 162t17 110 46 64 59 29q26 0 49-10t40-28 27-40 10-48q0-38-14-75t-38-70-50-62-53-52q-1-2-1-9t0-10q0-27 15-60t38-62 51-48 54-19q0 31-1 59t-12 48-35 32-70 11v20q0 5 19 9t46 6 52 3 40 1h30q8 0 15-5t9-14l58-461-32-32-64 301ZM91 78q21-26 55-36t70-7 71 20 54 42q-27 12-57 38t-56 57-48 57-31 40q-27-20-39-44t-17-51-4-56 2-60Zm327 154v57h-39l39-57ZM166 519v-30q0-14 2-28t6-28 13-28q18 14 42 35t44 46 35 54 15 56q0 12-5 29t-14 32-22 26-26 11q-33 0-51-19t-27-46-10-57-2-53Z"/><glyph unicode="'" glyph-name="quotesingle" horiz-adv-x="91" d="M14 691q0 5 8 12t12 7q25-16 32-42t7-55v-31q0-9-5-16t-15-10q-8 3-15 22t-12 42-9 44-3 27Z"/><glyph unicode="(" glyph-name="parenleft" horiz-adv-x="226" d="M4 241q0 30 3 71t12 89 21 95 33 93 45 81 60 60q2 1 9 3t9 3v-26q-27-46-48-85t-36-75-25-69-16-70-8-78-2-92q0-38 6-74t13-72 14-72 7-73q0-9-3-15T82-77Q67-42 53-3T28 78t-17 82-7 81Z"/><glyph unicode=")" glyph-name="parenright" horiz-adv-x="230" d="M81-86q0 10 4 16t15 12q21 50 33 88t19 72 7 70 2 83q0 67-6 130t-23 123-47 115T4 730q0 4 8 11t12 7q2 0 7-2t12-4 12-6 7-6q45-51 72-105t41-113 19-119 5-126v-58q0-33-1-71t-7-76-16-72-29-62-46-44q-11 6-15 12t-4 18Z"/><glyph unicode="*" glyph-name="asterisk" horiz-adv-x="235" d="M125 288q-3-6-9-14t-16-15-19-13-20-5q0 13-1 32t-6 37-15 33-29 21q21 4 34 10t21 14 12 15 11 18 14 20 23 19q14-4 19-12t7-17 1-19 4-16 14-13 35-5q0-2-1-6t-2-8q-1-1-4-6t-6-12-6-12-3-8q0-2 3-10t6-18 7-18 3-12v-38l-77 58Z"/><glyph unicode="+" glyph-name="plus" horiz-adv-x="317" d="m7 319 118 7v120q19 6 31 4t20-11 9-22 3-28-1-29-4-23h115v-30q-34-3-60-7t-45-18-25-39-5-71h-9q-9 0-19-1t-19-1-9-1q-1 21 3 36t9 28 4 20-9 14-33 7-66 3l-8 42Z"/><glyph unicode="," glyph-name="comma" horiz-adv-x="120" d="M55 1q-1 3-6 9T38 23 26 34t-10 6q6 12 12 16t16 4q28 0 40-12t12-37q0-31-13-50T35-75q-1 2-1 9t0 10v10q0 7 1 9 0 2 3 7t7 12 7 12 3 7Z"/><glyph unicode="-" glyph-name="hyphen" horiz-adv-x="389" d="M34 230q0 1 22 4t58 8 79 8 89 8h16q12 0 24 1t24 1 17 1q0-13-5-24t-18-17q-24-3-60-6t-74-8-74-8-60-6h-9q-7 0-12-1-13 0-22 2t-15 18l20 19Z"/><glyph unicode="." glyph-name="period" horiz-adv-x="148" d="M32 38q-4 15 0 23t13 13 18 4 18 1h17q10 0 18-5t12-12 0-24q-1-7-6-13t-11-13T96 2 81-2q-8 0-16 4T50 12 39 24t-7 14Z"/><glyph unicode="/" glyph-name="slash" horiz-adv-x="216" d="M158 538q2 6 5 13t7 10 11-1 15-22L34-11 4 19l154 519Z"/><glyph unicode="0" glyph-name="zero" horiz-adv-x="413" d="M35 249q0 19 1 45t6 54 13 55 23 49 34 35 48 14q57 0 100-21t71-58 42-85 14-101q0-22-4-48t-13-52-22-51-32-44-42-30-53-12q-54 0-89 23T75 82t-31 80-9 87Zm40 20q0-39 2-77t14-68 38-49 73-19q40 0 68 14t45 39 25 58 8 72q-5 70-29 117t-57 71-69 26-65-18-45-61-8-105Z"/><glyph unicode="1" glyph-name="one" horiz-adv-x="388" d="M28 37q19 4 29 5t16 3 12 1 13 1 21 3 39 8q9 27 14 62t8 76 4 84 3 85 3 81 6 72h-4q-3 0-5 1-21 0-40-9t-39-19-38-20-42-9l-4 37q1 0 13 6t30 13 42 17 47 18 43 16 36 10V76q9-9 26-10t37-1 39 2 34-2l-1-41q-41 0-81-4t-79-8-79-9-79-4Q41-1 38 11T28 37Z"/><glyph unicode="2" glyph-name="two" horiz-adv-x="484" d="M187 58q-27-15-49-18t-50-3q-11 0-24 1t-25 7-19 15-8 27q0 10 20 14t50 9 66 17 66 35 51 68 21 111q0 29-5 60t-18 58-36 43-61 18q-15 0-27-7t-22-16-19-22-19-22-23-16-31-7q0 27 12 50t33 41 46 28 52 10q40 0 72-20t55-51 35-68 12-74q0-35-10-69t-26-66-37-61-43-54q22-19 51-30t61-17 61-8 57-3q1-1 1-4t1-5q0-11-8-17T431 2t-23-3-20-1q-27 0-51 5t-48 13-49 19-53 23Zm-57 18q2 5-4 7t-15 2-15-2-5-7q3-4 8-6t12-2 11 2 8 6Z"/><glyph unicode="3" glyph-name="three" horiz-adv-x="413" d="M49 60q17 0 33-3t33-8 34-8 35-4q33 0 64 10t56 31 38 49 14 66q0 26-12 47t-31 37-44 23-47 9h-23q-7 0-10-1t-6-1q-2 0-10-3t-18-6-19-7-11-3q-2 0-5 2t-6 5-6 6-2 6q6 6 23 22t35 35 35 34 22 24q4 5 10 14t13 18 10 16 5 10q-6 32-22 42t-39 7-48-16-50-29-44-29-33-19q0 33 20 59t51 44 65 28 64 10q14 0 27-8t24-22 17-28 7-29q0-16-5-33t-14-34-18-32-20-27q26-8 53-22t50-35 36-47 14-58q0-43-14-80t-41-65-62-43-78-16h-35q-24 0-50 5T69 15 49 38v22Z"/><glyph unicode="4" glyph-name="four" horiz-adv-x="442" d="M235 384h-12q-9 0-12 1-24 0-49-4t-49-8-49-8-51-4q0 40 4 79t9 78 8 79 4 79q4 0 10-2t11-5 9-8 4-9V427q1 0 13-1t29-3 36-1 36 1 28 6 12 13v215q3 0 11-2t17-5 14-8 6-8V451h150q-3-11-5-21-1-8-3-16t-4-11q-20-6-44-7t-46-2-35-1-16 1l3-375h-39v365Z"/><glyph unicode="5" glyph-name="five" horiz-adv-x="422" d="M58 76q36-12 74-25t79-14q24 0 51 10t49 27 38 40 16 49q0 30-15 54t-38 40-51 26-56 9q-22 0-42-8t-41-17-40-15-44-2q-5 27-9 48t-6 42-3 40-1 44q0 45 16 68t44 35 61 12 71 2h18q12 0 25-1t22-1 12-1l12-34q-26-1-57-1t-62-2-59-6-46-15V307q31 18 62 19t64 2q35 0 71-10t65-32 48-51 19-72q0-30-16-59t-41-52-57-38-60-15h-52q-29 0-59 6T69 22 38 58l20 18Z"/><glyph unicode="6" glyph-name="six" horiz-adv-x="437" d="M13 203q3 31 12 79t23 99 35 97 45 75l40-35q-18-17-34-43t-29-56-22-61-17-61-10-55-4-40q0-5 3-25t9-43 15-41 22-18h4q3 0 5 1 11 32 25 63t33 56 46 41 64 16q24 0 49-4t45-14 33-30 13-50q0-48-20-79t-54-49-77-24-90-3q-40 0-70 19T56 66t-32 65-11 72Zm276 11q-36 0-59-15t-36-38-18-54-6-62q14 0 35 2t45 7 46 13 41 21 30 28 12 38q0 20-9 32t-22 18-30 8-29 2Z"/><glyph unicode="7" glyph-name="seven" horiz-adv-x="567" d="M340 190q-33 0-59-5t-60-13l-12 39 128 39 2 13q2 13 5 35t8 48 8 55 8 54 7 44q1 3 0 7t-2 5q-12 0-41 1t-63 3-64 3-42 0q-21-1-46-3t-43-13-23-31 10-62l-3-1q-3-1-8-3t-7-3-4-2q-13 0-19 12t-9 30-3 34 0 25v30q0 9 6 17t15 8h406q0-39-5-76t-12-75-11-77-5-78h145v-20l-172-38V0q-25-8-34 10t-10 49 3 67 6 64Z"/><glyph unicode="8" glyph-name="eight" horiz-adv-x="388" d="M94 118q0 22 6 42t14 40 14 38 7 41v4q0 3-1 5-5 4-24 19t-39 37-36 44-16 43q0 33 13 57t36 40 50 23 57 8q9 0 24-3t32-11 33-16 29-21 16-23-2-25l-77-134 10-8 25-20q15-12 33-28t33-31 25-30 11-24q0-37-17-71t-45-60-62-41-71-15q-27 0-42 10t-24 26-10 38-2 46Zm39 0V82q0-15 4-25t15-15 32-5q21 0 46 12t47 32 36 44 15 47q0 22-9 40t-24 31-34 20-41 7q-27 0-44-15t-26-39-13-49-4-49ZM57 430q0-12 11-27t28-27 35-22 32-9q16 0 32 16t28 37 20 43 8 30q0 18-9 28t-23 15-29 6-27 1q-18 0-37-5t-35-17-24-29-10-40Z"/><glyph unicode="9" glyph-name="nine" horiz-adv-x="360" d="M245 326q-19-19-35-31t-33-18-35-9-41-3q-18 0-33 3t-28 10-20 21-7 34q0 34 11 64t31 53 49 37 64 14q13 0 36-2t45-10 38-18 15-29q7-96 13-195t7-198V0q-24-8-34 7t-13 45-1 67 1 77-6 73-24 57Zm-193 9q0-10 5-16t12-9 16-3 17-1q19 0 34 3t28 9 29 18 33 28v15q0 4 1 9t1 6q0 33-19 51t-51 18q-23 0-42-12t-34-30-22-42-8-44Z"/><glyph unicode=":" glyph-name="colon" horiz-adv-x="157" d="M65 115q0 15 7 27t24 12q17 0 24-12t7-28q0-17-7-27T86 76q-8 0-12 4t-6 11-2 13-1 11ZM27 355q0 9 4 15t13 8 24-1 37-13q-10-15-20-27t-27-12q-13 0-22 9t-9 21Z"/><glyph unicode=";" glyph-name="semicolon" horiz-adv-x="133" d="M82-77q0 3-3 14t-6 24-7 24-4 15q-1 2-1 12t0 12q15 0 27-9t19-24 10-30 4-29q0-12-5-24t-13-22-20-18-24-7q0 2 1 11t2 12q1 2 4 7t6 12 7 12 3 8ZM22 231q0 21 8 32t32 25q9-2 13-8t7-13 2-15 0-14v-18q0-8-5-15t-12-9-24-4q-8 0-12 4t-6 11-2 13-1 11Z"/><glyph unicode="&lt;" glyph-name="less" horiz-adv-x="360" d="M32 163v5q0 3 2 4l211 288h23q0-24-10-51t-27-53-38-52-40-46-36-39-26-27v-38q9-3 25-10t38-17 43-20 44-20 37-18 24-11q3-2 9-7t12-11 11-12 7-9q-6-12-12-16t-16-4q-8 0-32 11t-55 27-65 36-62 38-48 33-19 19Z"/><glyph unicode="=" glyph-name="equal" horiz-adv-x="350" d="M55 130q10 3 33 6t52 6 60 4 58 2 45-1 23-8v-24h-15q-15 0-39-1t-54-2-60-2-56-3-44-5q-1 0-1 4t0 10 0 9-2 5Zm-4 105q25 3 57 7t67 8 70 5 68 2v-40L51 206v29Z"/><glyph unicode="&gt;" glyph-name="greater" horiz-adv-x="326" d="M259 268 29 460v58q8-7 24-20t38-31 43-36 44-35 37-30 26-20q9-7 22-12t25-13 22-17 9-25v-5q0-3-2-6-7-9-20-28t-30-44-36-52-36-52-30-44-20-29q-9-11-17-17t-22-7v43l153 230Z"/><glyph unicode="?" glyph-name="question" horiz-adv-x="322" d="M153 29q0 11 4 17t15 12q12-6 16-12t5-17q0-11-4-17T172 0q-11 6-15 12t-4 17Zm-39 269q0 22 11 37t29 26 38 22 38 21 29 28 12 39q0 16-11 26t-26 15-33 6-28 2q-21 0-40-9t-37-21-34-21-33-9q-11 0-17 4T0 480q13 20 31 34t39 25 44 15 46 5q18 0 43-4t48-15 40-27 17-42q0-26-17-54t-39-53-48-45-41-31v-90q-18 0-28 11t-14 26-6 33-1 30Z"/><glyph unicode="@" glyph-name="at" horiz-adv-x="706" d="M19 256q0 52 14 101t41 93 62 82 80 64 93 42 103 15q33 0 67-8t66-23 59-37 45-49 25-61 2-72q0-42-12-73t-30-60-33-56-25-60q-1-3 1-9t5-12 6-11 7-7q-28-34-56-56t-58-36-66-19-78-6q-59 0-116 14T119 58t-72 80-28 118Zm54 12q-3-62 18-106t60-70 89-35 103-2h51q27 0 55 5t50 18 39 37q-7-2-23-3t-34-1-35 1-24 3q-4 1-14 10t-23 19-24 19-15 9q-5 0-22-5t-36-12-36-13-22-8q-16-4-29 6t-24 26-17 34-6 30q0 32 13 72t37 75 54 59 68 25q24 0 42-9t30-26 19-36 6-44q0-18-3-34t-7-34-7-34-3-35q0-10 3-20t9-18 15-13 20-5q51 0 86 24t57 60 32 81 10 86q0 50-16 89t-45 66-71 42-92 15q-73 0-135-29t-107-77-70-111-26-131Zm299 141q-50 0-83-17t-52-48-28-71-9-86q54 0 88 16t52 46 25 71 7 89Z"/><glyph unicode="A" glyph-name="A" horiz-adv-x="398" d="M180 623q37 0 64-21t48-58 35-83 23-98 14-104 7-99 2-83 1-58h-24l-38 211q-5 5-22 6t-41-1-51-5-52-5-45-2-29 7V19H21v11q0 8 1 18t1 17 1 11q6 58 9 117t9 116 13 107 25 92 40 71 60 44Zm16-46q-26 0-43-18t-29-48-17-66-8-70-2-64-1-46q49 0 100 7t96 16q1 4 1 13t1 20 1 21 1 13q0 33-3 63t-14 58-30 54-53 47Z"/><glyph unicode="B" glyph-name="B" horiz-adv-x="490" d="M49 499q-4 1-9 6t-10 11-8 12-3 10q3 33 24 49t50 23 58 6 51 0q35 0 64-3t52-16 35-36 13-63q0-20-1-35t-6-30-12-31-21-38q41-13 68-24t42-28 20-40 6-61q0-44-19-83t-50-68-74-45-89-17q-10 0-27 3t-37 9-41 13-38 17-27 18-11 18v423Zm66-231q2-24-2-50t-7-50-2-45 12-39 36-29 69-18q37 0 73 13t65 37 47 56 18 72q0 26-9 44t-24 29-35 17-44 5q-29 0-52-1t-45-6-46-13-54-22ZM95 372q0-8 1-16t3-15 9-11 16-5q34 0 70 13t65 36 49 54 20 71q0 4-2 11t-9 16-21 15-37 13-59 6-85-4q-2-2-4-13t-5-27-4-36-3-39-3-38-1-31Z"/><glyph unicode="C" glyph-name="C" horiz-adv-x="436" d="M13 259q0 31 6 69t20 78 32 77 45 67 58 48 72 18q28 0 47-11t32-29 17-40 6-46q-22 0-33 13t-20 30-22 30-38 14q-33 0-58-18t-45-46-31-65-20-72-11-69-3-57q-4-34-1-70t17-67 38-51 66-24q26 0 58 8t63 20 61 25 49 24V76q-1 0-12-4t-30-12-42-15-47-16-44-16-37-13h-4q-3 0-5-1-55 0-90 23T50 83t-29 84-8 92Z"/><glyph unicode="D" glyph-name="D" horiz-adv-x="538" d="M38 499q-2 2-5 7t-6 11-5 12-3 9q0 9 8 14t18 6 19 1 12 0h8q5 0 12-1t12-1 7-1q33-12 75-28t88-37 88-47 77-60 55-74 21-89q0-42-16-75t-42-58-62-42-71-28-74-16-69-5h-24q-17 0-35 2T94 0 78 1l-2 37-38 461Zm57 5v-21q0-7 1-14t0-9q1-15 2-48t3-75 4-87 5-87 3-75 2-50h19q13 0 29-1t28-1 20-1q46 0 91 11t80 35 58 61 23 91q0 39-18 74t-47 66-68 54-78 41-81 27-76 9Z"/><glyph unicode="E" glyph-name="E" horiz-adv-x="504" d="M14 538q16 23 42 39t59 28 70 17 74 9 70 4 60 1h9q7 0 15-1t14-1 10 0q4-22-4-30t-22-10-29 0-22 1q-10-1-31-5t-48-10-55-12-56-12-48-11-31-7q-16-6-18-15t-2-21q0-21 2-47t6-51 7-47 5-31q4-1 15-1t15 0q23 0 45 4t44 9 45 8 47 4v-37q-10 0-28-1t-39-6-44-8-40-10-29-10-12-10V60q47 0 93 3t94 6 94 7 94 3q0-12-8-19t-18-12-23-7-18-3q-4-1-25-3t-52-6-69-8-75-8-70-7-55-6q-3-1-9-1 0 134-8 270T14 538Z"/><glyph unicode="F" glyph-name="F" horiz-adv-x="412" d="M34 518q-3 1-7 6t-7 11-5 12-1 9q1 4 6 10t11 12 12 12 10 5q12 3 37 9t58 15 67 16 68 15 58 14 38 8q5 1 16 2t25 2 24 2 16 1q0-19-4-27t-13-12-20-3-25-3q-10-3-33-9t-51-13-59-16-60-16-51-14-34-10q-15-17-17-31t-2-33q0-43 5-81t14-85h5q3 0 6-1 27 0 52 6t51 15 52 14 55 7h13q9 0 19-3t14-7 2-11l-258-78V-6q-18 0-28 4T79 11t-5 20-2 27q-2 17-5 53t-6 81-8 96-8 95-7 82-4 53Z"/><glyph unicode="G" glyph-name="G" horiz-adv-x="562" d="M480 66q-39-20-69-32t-58-18-56-9-66-2q-49 0-88 11T77 51t-43 60-15 89q0 47 9 99t28 103 46 99 65 84 83 57 102 22q21 0 50-4t55-15 45-30 18-50q0-11-10-11t-26 8-35 18-38 21-33 17-23 5q-48 0-87-18t-70-50-55-71-39-85-23-87-8-83q-7-47 5-81t38-57 60-34 72-12 75 6 67 26 50 42 23 56q0 32-12 54t-33 37-47 24-54 14-55 7-51 5v18q0 2 26 7t63 11 76 12 66 9h5q5 0 11 1t12 0 10 0h30q4 0 8-1 1-14 2-44t4-68 4-80 4-79 3-68 3-45v-38q0-12 1-23t0-16h-21L480 66Zm0 211v61q-15 0-31-7t-27-15l58-39Z"/><glyph unicode="H" glyph-name="H" horiz-adv-x="386" d="M22 201v136q0 64 3 126t7 127 11 140h29V346h218q-1 36-1 77t-1 84-1 83-1 77 0 63 0 42q3 0 10-1t15-4 14-7 6-12V-1l-31 6q-2 0-3 13t-1 32-1 45-1 50-1 47-1 37v38q0 24-1 55L72 283 70-2H22v203Z"/><glyph unicode="I" glyph-name="I" horiz-adv-x="100" d="M14 703q0 12 8 19t21 8h10q5-84 9-159t6-149 4-145 1-152q0-11 1-30t3-37 3-32 2-16L39 2q-2 41-4 94t-3 114-3 125-4 128-5 121-6 107v12Z"/><glyph unicode="J" glyph-name="J" horiz-adv-x="451" d="M19 154q0 13 1 23t18 15q17-7 25-21t13-33 10-37 14-34 26-23 46-6q52 5 88 18t59 34 37 47 20 60 8 71 2 83q0 45-6 89t-14 87-14 87-7 88v8q0 3 5 5t12 1 22-6q1-1 4-13t8-32 8-42 7-46 7-43 4-35q4-60 10-122t5-120-12-107-42-85-83-54T164-2q-30 0-56 13T62 47 31 97t-12 57Z"/><glyph unicode="K" glyph-name="K" horiz-adv-x="475" d="M33 582v115q0 19 1 29h27l1-20q1-20 2-55t4-81 4-99 5-108 5-108 5-100 4-82V54q0-8-1-14t-1-9V17q0-5-4-10T73 1 50-4q-1 13-3 52t-4 94-5 117-3 123-3 113 1 87Zm269-294q-29 49-60 67t-59 18-53-17-39-34v42l269 366h38L187 422q17-4 41-16t47-29 41-34 25-36l96-293q-6 0-11-2t-11-3-10-1-7 6l-96 274Z"/><glyph unicode="L" glyph-name="L" horiz-adv-x="490" d="m62 672 38-634q89 0 178 11t184 22l4-33q-1 0-18-2t-46-6-65-8-72-8-69-8-57-6h-5q-4 0-9-1t-10 0-8 0Q85-1 71 22T48 86t-13 93-6 110-2 115 1 109 0 94-4 65h38Z"/><glyph unicode="M" glyph-name="M" horiz-adv-x="480" d="M230 268h-38L96 460V19l-44-6q-2 35-3 88t-3 114-3 127-2 125-2 110-4 81q7 0 13 1t12 1 9-1 7-9l135-304 115 288q2 5 7 8t12 7 14 4 12 2q1 0 1-3t2-21 6-56 15-109 25-179 40-268q-4-9-10-12t-12-2-10 4-6 10l-76 537-116-288Z"/><glyph unicode="N" glyph-name="N" horiz-adv-x="533" d="M72 595v-13q0-10-1-20t0-20 0-13q0-65 3-130t7-130 7-132T91 5L55 7q-1 19-3 53t-6 78-8 96-8 103-8 104-5 94-4 77 0 52q0 12 9 20t21 8q12 0 27-5t21-15L451 91q0 46-2 99t-5 109-2 112 1 110 10 102 22 87q14 5 22 5t12 0 4-5 1-8v-11q-2-6-4-22t-7-47-7-82-6-124-4-176-1-238l-29-2L72 595Z"/><glyph unicode="O" glyph-name="O" horiz-adv-x="442" d="M18 332q0 33 4 70t15 72 27 68 40 57 55 39 72 15q35 0 62-19t47-51 33-72 21-80 12-78 3-65q-4-59-17-108t-35-87-56-62-80-32q-45 0-77 16T89 57t-37 60-21 71-10 74-3 70Zm38 0q0-24 1-54t5-60 14-60 24-52 39-37 57-14q48-3 79 12t50 46 29 75 16 100q0 22-2 55t-7 69-15 72-25 66-37 48-52 18q-31 0-56-14t-44-38-34-54-24-61-13-62-5-55Z"/><glyph unicode="P" glyph-name="P" horiz-adv-x="388" d="M19 550q0 32 24 55t60 38 73 22 65 8q27 0 54-9t49-25 32-42 8-59q-5-51-33-90t-70-65-90-40-94-14q0-37 3-73t6-74 7-73 3-74q0-11-2-20T96 0L76 19q0 1-3 28t-8 70-12 97-13 110-11 106-10 88v32Zm56-36v-39q0-18 3-35t7-35 11-41q31 5 74 19t82 38 67 55 27 71q0 21-10 37t-25 28-35 17-37 6q-29 0-58-7t-53-22-38-38-15-54Z"/><glyph unicode="Q" glyph-name="Q" horiz-adv-x="538" d="M391 1q-45-4-89-4t-86 8-75 24-61 44-40 67-15 98q0 35 8 79t25 90 41 91 55 79 69 56 82 21q30 0 58-23t53-58 45-79 34-85 23-76 8-51q0-37-5-69t-18-61-30-57-44-56q4-6 12-22t18-35 17-35 11-23q1-2 2-9t1-10h-42L391 1ZM64 238q0-45 15-82t43-64 65-40 80-15h21q14 0 28 2t26 8 12 20q0 29-14 52t-32 44-32 42-15 45h34L410 97q21 15 35 36t24 46 14 51 4 50q0 42-10 82t-28 77-37 66-40 54-35 38-23 18q-61-15-107-53t-79-90-48-113-16-121Z"/><glyph unicode="R" glyph-name="R" horiz-adv-x="518" d="M425-2q-4 18-10 47t-15 64-23 70-33 63-43 47-58 18q-13 0-34-2t-41-6-35-13-15-19V13q-4 0-12 2t-16 5-14 8-6 9v499q-12-2-21-10t-14-21-9-24-4-22q-4 0-11 4t-13 11-10 12-5 12q0 25 15 48t39 43 53 35 60 27 57 17 46 6q28 0 53-2t43-11 30-30 11-54q0-31-11-60t-28-57-38-51-42-46q47-29 76-58t47-59 27-59 15-61 11-63 16-65h-38ZM257 634h-19q-12 0-29-3t-31-6-29-11-22-16-9-24V320q24 0 50 12t51 32 50 46 42 53 29 54 11 48q0 23-7 36t-21 21-30 10-36 2Z"/><glyph unicode="S" glyph-name="S" horiz-adv-x="490" d="M53 76q5 12 15 15t23-15q0-2 9-5t24-8 34-9 39-8 37-6 31-3q34 0 62 14t49 38 32 52 11 61q0 9-3 31t-10 45-18 41-28 18q-104-12-170-10T84 343t-54 35-17 52q0 36 18 69t46 60 62 41 69 16q28 0 58-7t57-21 42-38 17-57q-24 0-44 13t-40 29-42 28-51 14q-24 0-48-12t-44-31-32-42-13-49v-21q0-11 5-22t12-18 25-7h269q17 0 29-10t21-27 14-36 9-39 5-35 1-26q0-39-11-73t-33-62-55-45-76-22q-21-2-54 1t-68 11-64 24-44 40Z"/><glyph unicode="T" glyph-name="T" horiz-adv-x="384" d="m3 543 16 52q1 1 15 2t39 4 54 6 61 6 62 6 57 6h63q24 0 33-9t9-39l-182-21q-2-63 2-132t10-139 11-140 6-132q0-9-5-12t-13-5-16 0-14 4q-3 13-6 45t-6 75-6 93-6 100-6 95-5 80-3 54-3 14L3 543Z"/><glyph unicode="U" glyph-name="U" horiz-adv-x="518" d="M398 250q-40-101-79-156t-76-73-70-5-60 51-47 95-31 125-12 142 11 147l39-4q-11-128-3-222t28-158 44-96 48-38q34 0 60 18t47 47 35 66 24 75 13 73 4 62q0 34-2 60t-6 53-10 53-13 64l49 36q23-145 39-248t29-173 19-111 11-65 6-33 2-16h-41l-58 231Z"/><glyph unicode="V" glyph-name="V" horiz-adv-x="529" d="m14 652 30 30 321-567 110 595h32L398 19 374-6 14 652Z"/><glyph unicode="W" glyph-name="W" horiz-adv-x="614" d="M293 360q-3-11-9-35t-15-54-18-63-19-63-16-53-10-34q-2-10-6-21t-9-18-11-3-12 22L14 730q3 0 10 1t10 2q20 0 26-8t12-34l115-519 77 250q4 12 11 16t18 4q8-8 23-29t32-50 37-61 36-62 32-52 22-34q3-5 10-13t17-18 18-17 13-10q-1 33-3 78t-4 99-2 110 1 114 9 109 16 97q2 7 5 10t8 5 12 1 17-1q0-11-1-26t-3-44-4-77-4-124-5-185-4-262q-43 34-80 76t-70 89-64 97-64 98Z"/><glyph unicode="X" glyph-name="X" horiz-adv-x="490" d="M210 345 18 652q16 6 31 1t26-20q6-8 18-26t27-40 32-48 32-48 27-41 18-27l115 249q28 7 38 2t10-18-13-34-26-46-32-53-30-56-21-54-3-48q19-34 47-72t59-77 58-80 47-79q1-1 1-3t-3-6-12-6-24-3L238 300 104-126 75-97l135 442Z"/><glyph unicode="Y" glyph-name="Y" horiz-adv-x="454" d="M292 326q-15 22-40 54t-55 69-60 78-57 77-47 70-29 56l20 18q37-40 64-73t50-63 40-57 37-54 43-56 54-61q6 28 11 62t12 72 13 75 16 74 19 67 25 53q1 1 4 1t6 0q3 0 8-1t11-3 8-7 1-9q-11-23-22-62t-22-87-20-105-16-115-14-115-9-108-3-91 5-66q-2-11-3-16t-7-9-15-3-28-1v336Z"/><glyph unicode="Z" glyph-name="Z" horiz-adv-x="658" d="M148 28v5q0 4 1 5l104 320-159-11 15 47 171 24 138 234h-29q-10 0-17 1t-12 0q-39 0-77-3t-78-7-77-7-78-3q-12 0-21 2t-15 17l20 20 20 2q20 2 54 5t75 8 84 8 82 8 69 7h9q8 0 12 1h10q7 0 14-2t11-6 1-12L352 422h132q7-16 2-26t-17-16-30-8-39-5-39-4-33-5q-19-33-38-70t-35-75-29-77-20-78h8q6 0 12-1t11-1 8 0q49 0 96 8t94 17 95 17 99 8V67q-56 0-110-10T412 33 305 10 196-1q-6 0-15 1t-16 5-12 9-5 14Z"/><glyph unicode="[" glyph-name="bracketleft" horiz-adv-x="298" d="M51-72q-2 17-3 55t-2 89-2 111-3 122-3 122-3 111-2 89-3 55v12q0 33 11 50t31 26 43 9 51 1h32q7 0 14-6t10-14q1-4 1-9t3-9q0-6 2-11H94q-1-19-3-54t-6-84-6-104-5-116-4-119 0-113 6-99 13-76h154q11 0 15-10t4-18v-10q-10-2-31-5t-46-6-51-6-47-3q-13 0-22 1T51-72Z"/><glyph unicode="\" glyph-name="backslash" horiz-adv-x="451" d="M43 652q4-6 28-39t72-106 117-187T427 38L408 0-8 652h51Z"/><glyph unicode="]" glyph-name="bracketright" horiz-adv-x="346" d="M172-24q7-3 21-3t29 4 29 7 17 11v4q0 4 1 11t1 13 1 11v13q0 8-1 18t-1 16-1 10q-2 24-5 61t-7 84-7 96-8 100-7 95-6 81-5 57-3 25l-20 57h-15q-12 0-30 2t-39 4-42 6-38 11-28 16q18 16 35 17t41 2q21 0 38-1t35-3 37-6 44-9q3-16 7-50t9-82 10-102 10-113 11-113 9-103 8-81 5-51v-8q0-7 1-17t1-19 0-15q0-35-5-53t-21-27-42-10-69-4v38Z"/><glyph unicode="^" glyph-name="asciicircum" horiz-adv-x="298" d="M154 676q-13-17-26-31t-25-27-24-28-27-31l-29 15 134 182q18-18 31-39t26-44 24-47 27-48q0-7-3-9t-8-4-12-3-15-6q-13 22-20 35t-14 24-14 25-25 36Z"/><glyph unicode="_" glyph-name="underscore" horiz-adv-x="451" d="m43 55 360 3V19q-10 3-36 2t-62-2-75-3-78-2-70 3-51 9l12 29Z"/><glyph unicode="`" glyph-name="grave" horiz-adv-x="253" d="M116 654q18-18 27-32t17-29 15-32 23-41q0-7-3-9t-8-4-12-3-15-6q-13 22-20 35t-13 24-15 24-24 37l28 36Z"/><glyph unicode="a" glyph-name="a" horiz-adv-x="346" d="M19 86q0 57 31 83t83 26q20 0 37-1t34-5 31-12 33-23v12q0 9 1 21t0 20 0 14q-1 18-1 46t-4 59-18 57-44 41q-21 0-39-7t-36-15-36-14-39-7q0 25 15 41t38 26 46 12 42 3q18-3 33-7t29-16 25-36 20-69 15-111 11-166q2-13-8-22t-29-16-40-11-46-7-44-3-35-1q-18 0-36 6T54 21 29 49 19 86Zm130 70q-50-14-70-33T61 85t24-32 51-19 65 4 67 38q-12 29-24 44t-26 24-31 10-38 2Z"/><glyph unicode="b" glyph-name="b" horiz-adv-x="375" d="M53 652q4-36 8-79t8-89 4-91-1-86q16 14 29 24t27 19 27 12 32 4q36 0 66-17t51-46 32-63 12-68q-2-56-23-89t-55-52-81-21-98 1v47q18-16 33-18t36-3q33 0 60 10t46 28 30 45 11 57q0 27-3 48t-13 38-31 32-54 31q-2 1-9 1t-10 1q-16 0-32-9t-29-24-22-32-13-33q-2-12-5-42t-8-66-8-66-5-43l-31 6-20 633h39Z"/><glyph unicode="c" glyph-name="c" horiz-adv-x="375" d="M19 171q0 37 12 82t35 83 57 65 79 26q23 3 37-4t21-24 10-36 3-42 1-40 1-31h-25q-1 6-3 28t-9 47-16 43-30 19q-28 0-52-22t-43-53-29-64-11-55q1-25 7-54t19-54 36-39 54-9q24 0 46 10t43 21 42 21 46 10q0-26-19-45t-46-32-58-18-52-6q-34 0-62 14T63 49t-32 55-12 67Z"/><glyph unicode="d" glyph-name="d" horiz-adv-x="334" d="M3 145q0 27 9 59t26 60 41 46 56 18q24 0 42-4t35-15 31-25 31-34l-6 513q27 10 33 8t7-17v-6q0-4-1-5-1-19-1-54t-1-81 2-99 2-108 2-108 2-100 1-81-2-54q-11-23-30-35T240 6t-47-7-45-1Q81-2 42 37T3 145Zm40 27q0-25 4-49t14-44 28-30 46-12h41q24 0 46 5t37 18 15 34q0 26-7 59t-23 64-39 52-56 22q-21 0-40-11t-33-28-24-38-9-42Z"/><glyph unicode="e" glyph-name="e" horiz-adv-x="337" d="M26 235q0 30 13 66t35 68 51 53 60 22q17 0 33-7t32-18 28-26 20-31 7-31-8-26L86 266q-4-1-7-9t-5-22-3-28-3-30-1-26 0-18q0-28 13-45t35-27 47-12 53-3 49 2 38 2q0-4-3-9t-7-9-8-8-5-5q-8-2-24-5t-35-7-35-5-22-2q-31-6-54 1T70 25 44 66t-15 53-5 58 2 58Zm145 171q-9 0-23-9t-27-24-21-31-6-29q26-3 54 1t51 12 38 20 15 24-19 21-62 15Z"/><glyph unicode="f" glyph-name="f" horiz-adv-x="373" d="M130 5q9 64 12 106t3 72-2 54 0 50q-13 0-28-6t-31-13-31-14-29-6q-5 0-6 4t-3 10-1 12-4 14l135 58q-19 150-14 250t29 162 62 90 86 36q37 0 70-14t59-40 41-58 16-70q-16 0-29 10t-26 27-24 34-26 35-32 26-40 11q-20-4-39-16t-36-36-30-58-20-88-7-122 8-162l124 1q3-13 3-22t-14-16q-11-4-28-7t-34-6-33-4-21-3q-1-47 1-89t3-81 0-72-11-65h-29q-4 0-8-1t-8-1-6 0-2 8Z"/><glyph unicode="g" glyph-name="g" horiz-adv-x="355" d="M-122-237q0 27 9 41t42 14q-3-14-7-28t-8-26-4-19 8-5q32-21 70-30t75-9q56 1 96 23t67 57 41 80 18 94-2 98-19 90q-17-19-34-40t-38-37-42-28-51-11q-29 0-43 10T36 64t-5 41 1 49q0 24 1 54t7 60 15 60 26 53 40 38 57 14q21 0 40-3t36-13 29-24 19-38q4-45 10-97t10-109 4-114-7-110-25-99-49-82-79-57-113-24q-28 0-59 3t-57 14-42 30-17 53ZM70 154q0-11-1-25t1-28 8-24 22-11q24 0 44 11t37 30 29 42 21 49 13 48 5 42q3 19 1 38t-12 34-24 24-36 10q-24 0-42-13t-30-35-19-47-10-53-5-51-2-41Z"/><glyph unicode="h" glyph-name="h" horiz-adv-x="345" d="m60 686 26-328q7 6 18 18t26 22 33 18 39 7q41-4 65-33t37-71 17-91 3-95-5-80-6-48l-36 5v28q0 19 2 46t1 56 0 54 1 46-2 28q1 28-11 54t-32 39-48 10-60-40q-28-42-41-82t-17-80-3-81 0-88L28 6q3 11 4 40t3 71 1 93 1 105-2 110-2 105-3 92-3 69l33-5Z"/><glyph unicode="i" glyph-name="i" horiz-adv-x="145" d="M67 388q12 0 20 1t15-10q3-45 7-91t8-94 5-94 1-93q0-6-3-7t-8-2-13 1-17-1L67 388ZM9 567q0 7 1 15t4 16 9 12 14 5q12 0 24-1t23-4 18-11 7-22q0-24-18-42t-44-19q-20 0-29 15t-9 36Zm58-5q-3 0-3-5t3-5q4 0 4 5t-4 5Z"/><glyph unicode="j" glyph-name="j" horiz-adv-x="211" d="M-224-315q0 10 1 17t6 8 13-4 20-22q0-13 18-21t43-12 48-6 36-1q49 0 83 17t57 47 33 69 11 83q0 62-8 119T114 94 82 211 46 337q-7 30-4 45t10 19 17 2 16-9q17-63 34-129t32-136 24-139 9-138q0-47-12-91t-37-79-64-55-91-21q-24 0-59 1t-67 8-55 23-23 47ZM1 647q13 0 28-3t28-11 21-19 9-28q0-39-41-39-19 0-29 10T4 582t-4 32 1 33Zm45-56q-3 0-3-4t3-5q4 0 4 4t-4 5Z"/><glyph unicode="k" glyph-name="k" horiz-adv-x="387" d="M56 27q-1 21-4 64t-8 98-8 116-7 115-7 98-4 65q-1 9-1 31t-2 48-1 48-1 32q14 0 25-5t18-19q2-21 4-59t6-89 6-107 7-113q3 5 6 9t4 5q11 12 26 28t31 33 33 33 30 30 23 22 11 8l38-19q-17-15-39-35t-43-42-40-47-32-49v-4q0-3-1-6v-4q0-3 1-5L358 38v-4q0-3 1-5 0-19-20-29L89 288q-1 1-2 3t-4 6l11-194V84q0-14 1-30t1-31 1-20Q84 3 73 8T56 27Z"/><glyph unicode="l" glyph-name="l" horiz-adv-x="145" d="M44 777q14-2 24-7t17-20q0-19 1-52t3-78 4-95 4-103 3-103 3-95 3-78 2-52v-7q0-5-1-12t-1-13-1-10q-1-6-1-14t-2-17-6-14-15-8L64 20q-1 1-2 37t-4 95-5 132-4 149-5 144-3 119v16q0 12 1 24t1 24 1 17Z"/><glyph unicode="m" glyph-name="m" horiz-adv-x="562" d="M19 390q12 0 26-6t20-24q8 34 24 55t38 29 45 6 44-15 36-31 22-44q11 31 29 57t41 45 47 25 46 0 38-32 24-71q2-13 5-38t6-58 8-67 8-68 7-57 5-38q0-10-1-22t-4-20-11-11-23 8q0 12-3 39t-6 62-7 75-9 75-8 62-6 38q-15 46-31 64t-33 16-32-21-27-48-22-64-16-71-7-66 3-51l-39-8q3 96-6 157t-26 95-38 39-41-8-38-50-25-84-7-112T96 19H58l-2 19q-2 19-6 48t-8 67-8 76-8 74-7 61v26Z"/><glyph unicode="n" glyph-name="n" horiz-adv-x="405" d="M34 5q-2 16-3 46t-3 69-3 81-2 80-2 68-5 47v5q0 4-1 9t-1 8 0 6q15 12 25 8t18-17 10-34 4-40 2-36 0-24q2 17 6 40t12 47 19 47 29 42 38 28 50 8q44-2 72-24t45-59 24-85 10-102 2-109-1-107q-9-2-18-6t-15-5-8 9 1 34q1 18 3 55t3 84-6 95-18 89-39 66-65 26q-41-17-68-64t-44-110-24-136T72 0q-2 1-7 1T53 1 41 3t-7 2Z"/><glyph unicode="o" glyph-name="o" horiz-adv-x="371" d="M24 183q0 23 4 53t13 62 22 61 33 53 44 38 56 15q32 0 59-22t47-57 30-78 8-84q0-60-23-107t-58-76-76-39-76 5-59 59-24 117Zm37-4q3-61 21-94t43-43 56-1 56 35 44 64 21 87q2 36-5 70t-21 60-33 42-45 16q-24 0-43-12t-34-32-27-47-18-52-11-50-4-43Z"/><glyph unicode="p" glyph-name="p" horiz-adv-x="454" d="M53 259q-4-3-11-2t-13 3-10 7-5 11q0 34 21 62t52 49 66 32 64 12q46 0 83-15t64-43 41-63 15-77q1-52-23-95t-64-73-88-46-96-12q2-36-1-82t-8-102-12-116-16-127q0-1-6-1t-12 1-13 3-8 1q7 83 11 168t3 170-9 170-25 165Zm152 118q-19-1-41-5t-39-14-27-24-7-37q2-10 5-29t8-43 9-50 9-50 8-43 6-30q12 2 34 4t47 8 51 16 50 30 40 47 24 71q0 39-14 67t-38 46-56 27-69 9Z"/><glyph unicode="q" glyph-name="q" horiz-adv-x="346" d="M245 96q-17-15-31-26t-30-19-30-12-35-4q-28 0-47 14T39 86t-20 48-6 50q0 24 4 51t15 55 24 53 34 45 43 30 52 12q28 0 51-9t39-25 26-41 10-55q0-50-4-99t-10-99-9-100-5-100q-6-36 7-66t34-52 47-36 47-17q-4-3-12-6t-18-6-17-5-11-2q-20 2-40 12t-36 26-28 36-11 41V96ZM52 193q0-13 4-33t12-38 21-32 31-14q34 0 61 19t46 48 28 62 10 63q0 17-3 38t-12 41-26 33-41 14q-20 0-37-12t-32-31-26-42-19-45-12-42-5-29Z"/><glyph unicode="r" glyph-name="r" horiz-adv-x="306" d="M13 390q12 5 21 2t15-11 9-18 5-21q13 22 37 35t53 18 56 3 47-12 28-26-4-39q-26 15-54 24t-56 6-50-20-38-56-18-100 8-156H34l-1 16q-1 16-3 44t-4 60-5 67-3 65-4 55v12q0 9-1 19t0 20 0 13Z"/><glyph unicode="s" glyph-name="s" horiz-adv-x="394" d="M72 81q18 0 33-7t31-15 30-15 34-7q21 0 43 7t42 21 31 33 12 43q1 7 1 17t-7 20-20 20-40 15-67 5-99-7q-15 0-29 8t-25 21-18 27-7 28q0 39 16 63t43 39 58 21 65 6q15 0 34-1t36-8 28-21 12-39q-2-17-5-20t-10 1-16 16-21 19-30 15-40 0q-23 0-46-4t-41-16-30-30-12-48q0-15 13-20t36-6 51 1 59 2 58-4 49-18 34-39 9-65q0-29-16-55t-42-45-57-31-60-8q-12 1-32 6t-40 16-34 24-14 35Z"/><glyph unicode="t" glyph-name="t" horiz-adv-x="380" d="M142 363q-9 3-24 3t-33-2-34-4-27-2q-5 0-6 14t-5 40l141 10q3 35 4 50t1 25-1 24-1 43q26 4 39 3t19-8 5-17-3-29-4-41 1-54l120 4v-49q-8 0-25-1t-36-2-36-2-25-4q-8-36-17-77t-12-81 2-74 25-57 57-31 98 5q-2-15-11-24t-22-15-27-8-25-3q-51 0-81 18t-45 49-19 68-3 79 6 79 4 71Z"/><glyph unicode="u" glyph-name="u" horiz-adv-x="458" d="M19 388q0 5 6 10t16 8 19 4 13-3q6-124 23-197t40-108 49-34 51 21 46 62 35 84 17 90-8 80l60 7q1-15 5-49t10-78 13-91 12-87 9-69 4-36h-43l-47 173q-14-35-34-67t-43-56-50-37-51-12-50 24-44 66-36 118-22 177Z"/><glyph unicode="v" glyph-name="v" horiz-adv-x="398" d="m10 442 31 31L261 73l94 387q7-3 15-4t14-3 11-4 4-7q-13-64-24-120t-25-109-28-106T287-5h-39L10 442Z"/><glyph unicode="w" glyph-name="w" horiz-adv-x="567" d="M209 13 14 460l26 27 166-372 76 245L475 96q9 49 11 98t3 99-1 101 2 102l43-16V208q0-23-1-38t-3-29-5-30-7-41-10-63q-31 24-60 60t-54 72-49 66-42 45L209 13Z"/><glyph unicode="x" glyph-name="x" horiz-adv-x="394" d="m10 460 19 20 154-173 96 192 39-28-98-212v-4q0-3 1-5 13-18 37-50t51-68 47-68 28-51L346-6 202 192q-12-8-25-32t-27-54-25-57-18-41L67 19l79 219L10 460Z"/><glyph unicode="y" glyph-name="y" horiz-adv-x="384" d="M214-410q0 50 9 103t18 106 16 106 2 104L10 431q22 20 35 22t15 1q7-10 23-37t38-63 46-76 45-76 37-64 22-39l46 371 50-25-108-858-45 3Z"/><glyph unicode="z" glyph-name="z" horiz-adv-x="480" d="m110 211-4 45 95 5 82 161-264-17-5 37q1 0 20 2t50 7 68 9 75 9 70 7 55 5l-89-220 95 7 2-47-140-10-58-165q73-3 144-2t145 2V13q-3 0-24-1t-54-3-72-4-78-3-73-2-56 2l71 209h-55Z"/><glyph unicode="{" glyph-name="braceleft" horiz-adv-x="298" d="M10 230q11 32 27 57t32 51 26 54 11 68q0 21-3 40t-7 39-7 40-4 40q0 27 13 51t35 41 47 28 52 11q7 0 16-1t17-5 13-10 5-18q-20 0-47-5t-52-17-42-31-18-47q0-21 3-42t8-42 8-42 4-43q0-26-7-48t-14-43-15-43-7-45v-11q0-7 2-7 18-46 27-77t17-55 12-42 17-38 29-41 51-55q3-4 3-10t-3-12-8-10-10-6q-36 0-58 12t-34 34-19 48-10 57-10 58-17 53-30 41-53 23Z"/><glyph unicode="|" glyph-name="bar" horiz-adv-x="145" d="M32 823v14q0 11 4 22t13 16 27-1v-26q0-26 2-72t1-107 2-131 2-142 2-144 2-133T88 7q0-9-1-15t-6-11-12-6-22-3q-1 1-1 25t-2 67-2 98-3 119-3 130-3 130-2 120-2 102v9q0 8 1 17t1 19 1 15Z"/><glyph unicode="}" glyph-name="braceright" horiz-adv-x="346" d="M206-87q27 7 43 15t24 19 11 26 2 32q0 14-3 41t-10 61-14 70-18 68-18 56-17 34q8 86 8 144t-3 96-13 58-19 31-20 12-19 6q-18 0-34-3t-32-7-32-8-34-4q0 22 14 37t36 24 43 14 38 4q33 0 57-13t39-34 22-49 8-57q0-36-4-70t-9-65-8-54 1-42q32-33 48-74t24-85 10-91 4-92q0-27-7-49t-23-39-39-26-56-9v23Z"/><glyph unicode="~" glyph-name="asciitilde" horiz-adv-x="311" d="M109 550q-11 8-17 3t-12-17-9-25-8-22-9-7-11 20q0 47 15 66t49 19q19-9 31-21t23-23 19-17 19-2 23 20 31 52q6 0 13-5t8-15q-16-41-31-61t-30-26-28 0-27 17-25 23-24 21Z"/><glyph glyph-name="nbspace" horiz-adv-x="384"/><glyph unicode="¡" glyph-name="exclamdown" horiz-adv-x="158" d="M111 595q-21-14-29-30t-8-30 11-25 21-12 26 7 25 34q0 9-3 19t-9 18-15 13-19 6Zm9-56q-4 0-6 2t-2 7 2 7 6 3q8-2 8-9t-8-10ZM32-13q0-9 1-12t5-3 12-1 18-5l52 430q-2 1-8 3t-10 2q-10 0-16-4t-10-12-4-19-4-23q-1-5-3-24t-5-49-7-64-7-69-8-65-5-52v-5q0-5-1-11t0-11 0-6Z"/><glyph unicode="¢" glyph-name="cent" horiz-adv-x="375" d="M172 466v13q0 10 4 22t13 16 28 0v-90q18 0 29-10t17-27 8-35 2-40 1-37 1-28h-25q-1 5-2 20t-5 34-9 38-16 31q1-66 1-150t2-176q16 7 31 16t31 17 32 13 35 6q0-20-12-36t-30-29-41-19-46-13v-12q0-6 1-14-1-9-3-10t-7-1-13 4-21 3q-3 2-3 26-34 0-62 14T63 49t-32 55-12 67q0 34 9 74t29 76 47 65 66 37l2 43ZM57 193q1-25 7-54t19-54 36-39 54-9h1q-1 27-1 64t-1 82-1 95-2 105q-24-8-44-31t-36-52-23-58-9-49Z"/><glyph unicode="£" glyph-name="sterling" horiz-adv-x="490" d="M17 302q1 1 5 2t17 2q7 1 19 1-5 75 0 125 8 64 28 94t47 39 54-2 50-25 34-33 7-25-31-1-82 41q-21 12-33-3t-18-49-7-83q0-35 2-74 17 2 40 4 9 1 21 2t25 2 21-3 13-7-1-12-22-20q-24-3-39-4t-28-2-28-2q3-48 7-97 6-56 12-105 45 20 86 26t80 4 73-13 67-27l-6-36q-11 6-35 10t-56 7-67 3-67-2-59-9-40-17Q72 163 61 265h-8q-6-1-12-1t-7-1H23q-5 0-8 4t-3 12 5 23Z"/><glyph unicode="¤" glyph-name="currency" horiz-adv-x="444" d="M73 183q0 18 2 40t8 47 14 49 20 47l-58 94 19 20 64-72q19 25 44 41t59 16q23 0 43-11t37-32l39 49 40-29-49-66q18-33 26-73t7-79q0-57-21-104 23-33 41-61t25-46L394-6l-56 78q-24-29-54-47T223 1t-60 3-50 36Q94 18 81 1T63-27L23-17l66 99q-8 19-12 44t-4 57Zm34 3q2-61 20-94t45-43 56-1 56 35 44 64 21 87q0 36-6 70t-21 60-33 42-45 16q-24 0-43-12t-35-33-26-46-18-52-11-50-4-43Z"/><glyph unicode="¥" glyph-name="yen" horiz-adv-x="349" d="M71 274q24 3 53 6t63 7v39q-16 22-34 55t-38 71-38 79-36 79-30 72-22 56l18 19 198-373q9 41 24 92t33 103 38 98 41 81q2 1 5 1t5 0q3 0 8-1t11-3 9-6 0-10q-12-26-33-69t-42-97-38-117-25-128v-36q23 1 47 2t46 1v-40l-95-4v-65q41 1 71 0t37-8v-24h-8q-8 0-24-1t-34-1-42-1l-1-132q-1-11-2-16t-7-9-15-3-27-1v158q-33-1-61-3t-48-5q-1 0-1 4t0 9 0 10-2 6q13 3 43 7t69 7v66l-116-4v29Z"/><glyph unicode="¦" glyph-name="brokenbar" horiz-adv-x="145" d="M98 388q2-48 3-93t3-85 2-69 2-47v-7q0-5-1-12t-1-13-1-10q-1-6-1-14t-2-17-6-14-15-8L64 20q-1 1-2 32t-3 82-4 116-5 136l48 2Zm-54 30q-1 43-1 75t0 61 1 54 0 55v16q0 12 1 24t1 24 1 17q14-2 24-7t17-20q1-40 4-114t8-188l-56 3Z"/><glyph unicode="§" glyph-name="section" horiz-adv-x="397" d="M35 117q18 0 39-12t43-28 43-28 40-12q21 0 45 3t46 10 36 23 14 37q-1 6-1 13t-4 17-13 20-31 24q-21-10-43-12t-43-6q-28-3-55 4t-50 24-35 38-14 47 15 50 53 50h-4q-2 0-6-1-15 0-29 8t-25 20-18 27-7 29q0 38 16 63t43 40 58 20 66 6q15 0 34-1t36-9 28-20 11-39q-1-17-5-20t-10 1-15 15-22 20-30 14-39 1q-24 0-49-4t-45-16-31-31-5-48q4-18 20-25t40-10 53 0 58 2 56-3 46-15 30-35 7-62q0-11-5-25t-14-27-17-27-19-22q13-6 23-13t16-18 10-27 2-38q0-29-18-51t-46-37-61-21-61 0q-13 2-30 8t-35 16-37 20-31 23-20 25-4 25Zm265 116q19 14 31 33t12 42q-1 38-33 56t-81 15q-24 0-49-7t-47-23-34-37-14-52q0-9 13-23t41-23 67-7 94 26Z"/><glyph unicode="¨" glyph-name="dieresis" horiz-adv-x="347" d="M46 544q-3 15 1 23t12 12 18 5 18 1q8 0 17-1t18-5 12-12 0-23q-3-14-17-27t-30-13q-8 0-16 3t-14 10-11 13-8 14Zm148 0q-4 15 0 23t13 12 18 5 18 1q7 0 17-1t18-5 12-12 0-23q-1-7-6-14t-11-13-15-9-15-4q-17 0-31 13t-18 27Z"/><glyph unicode="©" glyph-name="copyright" horiz-adv-x="520" d="M127 226q0 30 11 69t30 73 46 58 57 24q17 3 28-4t17-22 11-33 6-37 3-35 2-26l-31-8q0 5-1 23t-6 37-12 35-21 15q-20 0-36-17t-30-43-21-52-8-45q1-19 5-42t14-43 25-31 38-7q17 0 32 7t30 17 30 16 32 8q0-21-13-38t-33-29-41-19-37-7q-24 0-47 14t-40 36-29 50-11 56ZM23 274q-1 45 10 93t36 90 67 71 102 34q43-1 79-17t66-44 51-62 36-75 20-80 3-80q-6-70-31-120T399 3t-82-47-91-16q-45 0-77 15T94-3 57 58t-21 71-10 74-3 71Zm38 0q0-25 1-55t6-61 13-60 24-51 39-37 58-14q47-7 89 1t77 33 56 68 29 106q4 25 0 58t-18 68-33 70-45 62-56 44-62 17q-45-5-78-33t-56-65-33-79-11-72Z"/><glyph unicode="ª" glyph-name="ordfeminine" horiz-adv-x="224" d="M11 176q0 33 20 47t53 15h24q11 0 22-3t20-7 21-13v6q0 5 1 12t0 12 0 8q-1 10-1 26t-3 33-11 32-28 23q-14 0-25-4t-23-8-23-8-26-4q0 14 10 23t24 14 30 7 27 2q12-2 22-4t18-9 16-20 13-39 10-63 7-93q1-8-6-13t-18-9-26-6-29-4-28-1-23-1q-12 0-24 3t-22 10-16 16-6 20Zm84 40q-32-8-45-19t-12-21 15-18 33-11 42 2 43 22q-7 16-15 25t-17 13-20 6-24 1Z"/><glyph unicode="«" glyph-name="guillemotleft" horiz-adv-x="476" d="M32 163v5q0 3 2 4l211 288h23q0-24-10-51t-27-53-38-52-40-46-36-39-26-27v-38q9-3 25-10t38-17 43-20 44-20 37-18 24-11q3-2 9-7t12-11 11-12 7-9q-6-12-12-16t-16-4q-8 0-32 11t-55 27-65 36-62 38-48 33-19 19Zm122 31v5q0 3 2 4l211 288h24q0-25-11-52t-27-53-37-51-41-46-36-39-25-27v-39q8-3 24-10t38-17 44-19 43-20 37-18 24-12q3-1 9-6t12-11 11-12 7-9q-6-12-12-16t-16-4q-8 0-32 11t-55 27-65 36-62 38-48 32-19 20Z"/><glyph unicode="¬" glyph-name="logicalnot" horiz-adv-x="388" d="M304 268 34 249l-2 50q32-9 72-5t81 11 83 11 79-4q-3-29-3-43t0-29 3-34 3-60q-8-11-20-9t-26 2v129Z"/><glyph unicode="­" glyph-name="hyphen_" horiz-adv-x="389" d="M34 230q0 1 22 4t58 8 79 8 89 8h16q12 0 24 1t24 1 17 1q0-13-5-24t-18-17q-24-3-60-6t-74-8-74-8-60-6h-9q-7 0-12-1-13 0-22 2t-15 18l20 19Z"/><glyph unicode="®" glyph-name="registered" horiz-adv-x="518" d="M376 97q-4 12-9 36t-16 49-28 41-43 18q-7 0-19-1t-23-5-20-7-9-10V104h-8q-6 0-12-2t-11-1-5 3l4 257q-14-3-17-14t-3-22q-3 0-8 3t-10 9-9 9-4 7q0 19 18 36t43 30 51 20 42 8q15 0 30-4t27-12 20-21 8-31q0-15-5-29t-14-28-19-26-21-22q37-22 55-42t26-41 11-42 12-46l-34-6Zm-92 315q-6 0-18-1t-25-4-22-9-10-16V256q19 0 40 13t41 31 31 40 13 38q0 22-14 28t-36 6ZM26 280q0 33 4 69t15 72 27 68 40 57 55 40 72 15q41 10 78-4t69-44 55-72 39-89 19-94-3-87q-6-71-31-121T402 9t-82-47-91-16q-44 0-76 15T98 3 61 64t-22 71-10 74-3 71Zm38 0q0-24 1-54t6-62 13-60 24-51 39-37 58-14q47-7 89 1t77 33 56 68 29 107q7 27 3 66t-16 79-32 80-46 70-57 46-67 11q-31 0-56-14t-44-38-34-54-24-61-14-62-5-54Z"/><glyph unicode="¯" glyph-name="overscore" horiz-adv-x="451" d="m43 514 360 3v-38q-10 2-36 2t-62-2-75-3-78-2-70 3-51 9l12 28Z"/><glyph unicode="°" glyph-name="degree" horiz-adv-x="230" d="M9 259q0 14 3 32t9 37 15 37 21 32 30 22 38 9q21 0 39-13t32-34 20-46 6-51q0-36-15-64t-40-45-51-24-51 3-40 35-16 70Zm25-2q2-36 14-56t29-26 38 0 37 21 30 38 14 52q1 21-4 41t-14 37-22 25-30 9q-16 0-29-7t-23-19-17-28-13-31-7-30-3-26Z"/><glyph unicode="±" glyph-name="plusminus" horiz-adv-x="327" d="M43 133q1 2 21 3t65 5q-1 16-1 27t-1 21 0 21-1 26H23l-8 43 118 7v120q17 6 32 6t22-6l3-110h116v-44q-35-3-65-5t-51-3l-4-98h10q5 0 11 2h16q12 0 25 1t24 1 17 1q0-14-6-25t-18-17q-48-5-91-7t-92-7H72q-8 0-12-1-13 0-22 2t-14 19l19 18Z"/><glyph unicode="²" glyph-name="twosuperior" horiz-adv-x="322" d="M127 168q-18-9-32-10t-34-2H45q-9 0-16 4t-13 10-5 16q0 6 13 8t33 6 44 10 44 22 33 41 14 67q0 18-3 37t-12 35-24 26-40 11q-10 0-18-4t-14-10-13-13-13-13-15-10-20-4q0 16 8 30t21 25 31 17 34 6q26 0 47-12t37-31 23-42 8-45q0-21-6-41t-18-40-24-37-29-34q15-11 34-18t40-10 41-5 37-2q1 0 1-2t1-3q0-7-5-11t-13-6-15-2-14 0q-17 0-33 3t-32 8-32 11-35 14Zm-38 11q1 3-3 4t-9 2-10-1-4-5q2-2 5-3t8-2 7 1 6 4Z"/><glyph unicode="³" glyph-name="threesuperior" horiz-adv-x="261" d="M34 180q11 0 20-2t20-5 20-5 21-3q20 0 39 6t33 19 23 31 8 42q0 16-7 29t-18 23-26 15-29 5h-20q-4 0-3-1-2 0-7-2t-10-4-11-4-7-2q-1 0-3 1t-4 4-3 4-1 3q3 4 13 14t21 22 21 21 13 15q3 3 7 9t7 11 6 10 3 6q-3 20-13 26t-23 5-29-10-30-18-26-18-20-12q0 21 12 37t30 27 39 18 39 6q8 0 16-5t14-13 11-18 4-18q0-10-3-21t-9-21-11-20-12-17q16-5 32-14t30-22 21-29 9-37q0-26-8-49t-24-41-38-27-47-10h-21q-15 0-30 2t-27 8-12 15v14Z"/><glyph unicode="´" glyph-name="acute" horiz-adv-x="181" d="M152 619q-13-18-26-31t-25-27-25-28-26-31l-29 15q35 45 54 73t28 42 13 16 5-1 9-12 22-16Z"/><glyph unicode="µ" glyph-name="mu" horiz-adv-x="458" d="M19 388q0 5 6 10t16 8 19 4 13-3q6-124 23-197t40-108 49-34 51 21 46 62 35 84 17 90-8 80l60 7q1-15 5-49t10-78 13-91 12-87 9-69 4-36h-43l-47 173q-13-33-33-63t-45-52-51-34-53-11-52 18-45 55L64-28q-5-1-12-2t-14-2-12 1-4 12q0 16 1 45t3 67 2 79 0 82-2 75-7 59Z"/><glyph unicode="¶" glyph-name="paragraph" horiz-adv-x="372" d="M223 277q-20-21-35-33t-31-18-31-8-40-3q-18 0-32 8t-23 21-15 32-6 39q0 136 136 136h45q24 0 49-1t51-4 52-12q3-55 6-84t4-45 2-24 1-23 1-41 0-80q0-11 1-30t2-37 3-32 1-15l-42-9q-2 41-3 71t-2 57-2 51-2 53-3 64-5 85q-4 0-8 1t-8 1-9 2v-8q3-47 6-85t5-74 4-76 1-88V44q0-9-1-15t0-9q-24-7-34 3t-12 31 0 51 3 60-5 60-24 52Z"/><glyph unicode="·" glyph-name="middot" horiz-adv-x="172" d="M99 166q-24 14-33 31t-8 32 11 27 23 13 29-7 28-36q0-11-3-21t-10-19-16-14-21-6Zm9 59q-5 1-6-2t-2-7 1-8 7-3q9 3 9 10t-9 10Z"/><glyph unicode="¸" glyph-name="cedilla" horiz-adv-x="324" d="M95-158q12 0 22-5t21-12 21-12 23-5q14-2 31 5t30 20 20 27-2 25-36 14-80-3q-9 0-19 6t-17 16-12 22-5 22q-5 30 3 48t19 20 14-15-9-59q0-15 12-18t31-3 41 2 40-3 31-22 13-52q0-22-10-38t-26-27-35-15-39-1q-8 0-22 4t-27 12-23 20-10 27Z"/><glyph unicode="¹" glyph-name="onesuperior" horiz-adv-x="258" d="m19 149 18 3q6 1 11 1t8 1 8 0 14 2 25 4q6 15 9 34t5 42 3 45 1 46 2 44 4 39h-2q-2 0-4 1-13 0-25-5t-25-10-25-11-27-5l-3 20q1 0 9 3t19 7 27 10 30 9 28 9 23 5V170q6-5 17-5t24-1 25 1 22-1l-1-22q-26 0-52-2t-51-4-51-5-51-3q-7 0-8 6t-7 15Z"/><glyph unicode="º" glyph-name="ordmasculine" horiz-adv-x="230" d="M9 259q0 14 3 32t9 37 15 37 21 32 30 22 38 9q21 0 39-13t32-34 20-46 6-51q0-36-15-64t-40-45-51-24-51 3-40 35-16 70Zm25-2q2-36 14-56t29-26 38 0 37 21 30 38 14 52q1 21-4 41t-14 37-22 25-30 9q-16 0-29-7t-23-19-17-28-13-31-7-30-3-26Z"/><glyph unicode="»" glyph-name="guillemotright" horiz-adv-x="482" d="M259 268 29 460v58q8-7 24-20t38-31 43-36 44-35 37-30 26-20q9-7 22-12t25-13 22-17 9-25v-5q0-3-2-6-7-9-20-28t-30-44-36-52-36-52-30-44-20-29q-9-11-17-17t-22-7v43l153 230Zm136 19L165 479v58q7-7 23-21t38-30 44-36 44-36 37-30 25-20q9-7 22-12t26-13 21-16 9-26v-5q0-3-1-5-7-9-20-29t-30-44-36-52-36-52-30-44-21-29q-8-10-16-17t-22-7v44l153 230Z"/><glyph unicode="¼" glyph-name="onequarter" horiz-adv-x="630" d="M23 164q12 2 18 2t11 1 7 1 8 0 13 2 24 4q6 14 9 32t5 38 3 42 1 43 2 42 4 36h-3q-2 0-3 1-13 0-25-5t-24-10-24-9-26-5l-2 18q1 0 8 3t18 7 27 9 29 9 27 7 22 6V183q6-4 16-5t23-1 25 1 21 0l-1-21q-25 0-50-2t-49-4-49-4-50-3q-7 0-8 6t-7 14Zm232 379q2 6 4 13t5 10 7-1 11-22L168-8l-21 30 108 521Zm131-334h-8q-6 0-8 1-17 0-35-2t-35-4-34-5-36-2q0 22 3 43t6 43 6 43 3 43q3 0 7-1t7-3 7-4 3-5V233l8-1q8-1 21-1t26-1 25 1 20 3 8 7v118q2 0 8-1t11-3 10-4 5-5V246h106q-3-6-4-11t-2-9-3-6q-14-3-31-4t-32-1-25-1-11 1l2-206h-28v200Z"/><glyph unicode="½" glyph-name="onehalf" horiz-adv-x="662" d="m39 159 18 3q6 1 10 1t7 1 9 0 13 2 25 4q5 16 8 35t5 42 3 47 2 48 2 45 4 41h-6q-13 0-25-5t-25-11-24-11-26-5l-3 21q1 0 8 3t19 8 27 9 29 10 28 9 22 6V180q6-5 17-5t23-1 25 1 21-1l-1-23q-26 0-51-2t-50-4-50-5-49-3q-7 0-9 7t-6 15Zm323 373q2 6 5 13t7 10 11-1 15-22L238-17l-30 30 154 519ZM348 23q-18-9-32-11t-33-2q-7 0-15 1t-16 4-13 10-5 17q0 6 13 9t33 6 43 11 42 22 33 44 14 72q0 18-3 38t-11 37-24 28-40 12q-10 0-17-4t-14-11-13-14-13-14-15-11-20-4q0 17 8 32t22 27 29 17 34 7q26 0 47-13t36-33 22-44 8-47q0-23-6-45t-17-42-24-39-28-35q14-12 33-19t40-11 40-6 37-2V8q0-2 1-3 0-7-5-11t-12-7-15-2-14 0q-17 0-32 3t-32 8-32 13-34 14Zm-37 12q1 3-3 4t-10 2-9-1-4-5q2-3 5-4t8-1 7 1 6 4Z"/><glyph unicode="¾" glyph-name="threequarters" horiz-adv-x="1070" d="M49 60q17 0 33-3t33-8 34-8 35-4q33 0 64 10t56 31 38 49 14 66q0 26-12 47t-31 37-44 23-47 9h-23q-7 0-10-1t-6-1q-2 0-10-3t-18-6-19-7-11-3q-2 0-5 2t-6 5-6 6-2 6q6 6 23 22t35 35 35 34 22 24q4 5 10 14t13 18 10 16 5 10q-6 32-22 42t-39 7-48-16-50-29-44-29-33-19q0 33 20 59t51 44 65 28 64 10q14 0 27-8t24-22 17-28 7-29q0-16-5-33t-14-34-18-32-20-27q26-8 53-22t50-35 36-47 14-58q0-43-14-80t-41-65-62-43-78-16h-35q-24 0-50 5T69 15 49 38v22Zm522 478q2 6 5 13t7 10 11-1 15-22L447-11l-30 30 154 519Zm293-154h-12q-9 0-12 1-24 0-49-4t-49-8-49-8-51-4q0 40 4 79t9 78 8 79 4 79q4 0 10-2t11-5 9-8 4-9V427q1 0 13-1t29-3 36-1 36 1 28 6 12 13v215q3 0 11-2t17-5 14-8 6-8V451h150q-3-11-5-21-1-8-3-16t-4-11q-20-6-44-7t-46-2-35-1-16 1l3-375h-39v365Z"/><glyph unicode="¿" glyph-name="questiondown" horiz-adv-x="322" d="M160 492q0-10 4-16t13-11q11 5 15 11t4 16q0 11-4 16t-15 12q-9-6-13-11t-4-17Zm-35-256q0-21 10-35t26-26 34-20 34-20 26-26 11-38q0-15-9-24t-24-15-29-6-26-2q-19 0-36 9t-33 20-31 20-29 9q-10 0-15-4T23 63q12-20 28-33T86 7t39-15 42-5q16 0 38 4t44 15 36 25 15 40q0 25-15 51t-36 51-42 43-38 30v85q-16 0-25-10t-13-25-5-32-1-28Z"/><glyph unicode="À" glyph-name="Agrave" horiz-adv-x="398" d="M180 623q37 0 64-21t48-58 35-83 23-98 14-104 7-99 2-83 1-58h-24l-38 211q-5 5-22 6t-41-1-51-5-52-5-45-2-29 7V19H21v11q0 8 1 18t1 17 1 11q6 58 9 117t9 116 13 107 25 92 40 71 60 44Zm16-46q-26 0-43-18t-29-48-17-66-8-70-2-64-1-46q49 0 100 7t96 16q1 4 1 13t1 20 1 21 1 13q0 33-3 63t-14 58-30 54-53 47Zm-24 231q18-18 27-32t17-29 15-32 23-41q0-7-3-9t-8-4-12-3-15-6q-13 22-20 35t-13 24-15 24-24 37l28 36Z"/><glyph unicode="Á" glyph-name="Aacute" horiz-adv-x="398" d="M180 623q37 0 64-21t48-58 35-83 23-98 14-104 7-99 2-83 1-58h-24l-38 211q-5 5-22 6t-41-1-51-5-52-5-45-2-29 7V19H21v11q0 8 1 18t1 17 1 11q6 58 9 117t9 116 13 107 25 92 40 71 60 44Zm16-46q-26 0-43-18t-29-48-17-66-8-70-2-64-1-46q49 0 100 7t96 16q1 4 1 13t1 20 1 21 1 13q0 33-3 63t-14 58-30 54-53 47Zm63 196q-13-18-26-31t-25-27-25-28-26-31l-29 15q35 45 54 73t28 42 13 16 5-1 9-12 22-16Z"/><glyph unicode="Â" glyph-name="Acircumflex" horiz-adv-x="398" d="M180 623q37 0 64-21t48-58 35-83 23-98 14-104 7-99 2-83 1-58h-24l-38 211q-5 5-22 6t-41-1-51-5-52-5-45-2-29 7V19H21v11q0 8 1 18t1 17 1 11q6 58 9 117t9 116 13 107 25 92 40 71 60 44Zm16-46q-26 0-43-18t-29-48-17-66-8-70-2-64-1-46q49 0 100 7t96 16q1 4 1 13t1 20 1 21 1 13q0 33-3 63t-14 58-30 54-53 47Zm13 253q-13-17-26-31t-25-27-24-28-27-31l-29 15 134 182q18-18 31-39t26-44 24-47 27-48q0-7-3-9t-8-4-12-3-15-6q-13 22-20 35t-14 24-14 25-25 36Z"/><glyph unicode="Ã" glyph-name="Atilde" horiz-adv-x="398" d="M180 623q37 0 64-21t48-58 35-83 23-98 14-104 7-99 2-83 1-58h-24l-38 211q-5 5-22 6t-41-1-51-5-52-5-45-2-29 7V19H21v11q0 8 1 18t1 17 1 11q6 58 9 117t9 116 13 107 25 92 40 71 60 44Zm16-46q-26 0-43-18t-29-48-17-66-8-70-2-64-1-46q49 0 100 7t96 16q1 4 1 13t1 20 1 21 1 13q0 33-3 63t-14 58-30 54-53 47Zm-47 127q-11 8-17 3t-12-17-9-25-8-22-9-7-11 20q0 47 15 66t49 19q19-9 31-21t23-23 19-17 19-2 23 20 31 52q6 0 13-5t8-15q-16-41-31-61t-30-26-28 0-27 17-25 23-24 21Z"/><glyph unicode="Ä" glyph-name="Adieresis" horiz-adv-x="398" d="M180 623q37 0 64-21t48-58 35-83 23-98 14-104 7-99 2-83 1-58h-24l-38 211q-5 5-22 6t-41-1-51-5-52-5-45-2-29 7V19H21v11q0 8 1 18t1 17 1 11q6 58 9 117t9 116 13 107 25 92 40 71 60 44Zm16-46q-26 0-43-18t-29-48-17-66-8-70-2-64-1-46q49 0 100 7t96 16q1 4 1 13t1 20 1 21 1 13q0 33-3 63t-14 58-30 54-53 47ZM77 698q-3 15 1 23t12 12 18 5 18 1q8 0 17-1t18-5 12-12 0-23q-3-14-17-27t-30-13q-8 0-16 3t-14 10-11 13-8 14Zm148 0q-4 15 0 23t13 12 18 5 18 1q7 0 17-1t18-5 12-12 0-23q-1-7-6-14t-11-13-15-9-15-4q-17 0-31 13t-18 27Z"/><glyph unicode="Å" glyph-name="Aring" horiz-adv-x="398" d="M137 661q0 7 1 18t5 22 13 17 22 8q36 0 54-20t18-48q0-9-3-19t-9-20q-6-8-14-15 15-5 28-15 28-21 48-57t35-83 23-98 13-104 7-99 3-83 1-58h-24l-39 211q-5 5-22 6t-41-1-51-5-52-5-45-2-29 7V7H28v11q0 8 1 18t1 17 1 11q6 58 9 117t9 116 14 107 24 92 40 71q18 22 42 35l-1 1q-11 6-18 15t-10 21-3 22Zm67-96q-26 0-44-18t-28-48-17-66-8-70-3-64-1-46q49 0 100 7t97 16q1 4 1 13t1 20 1 21 1 13q0 33-3 63t-14 58-31 54-52 47Zm-47 96q10-27 20-34t19-4 16 15 11 25q-3 21-15 31t-25 10-21-11-5-32Z"/><glyph unicode="Æ" glyph-name="AE" horiz-adv-x="794" d="M298 538q16 23 42 39t60 28 70 17 73 9 70 4 60 1h9q6 0 15-1t14-1 10 0q4-22-4-30t-22-10-28 0-23 1q-10-1-31-5t-47-10-56-12-56-12-48-11-30-7q-17-6-19-15t-2-21q0-21 3-47t6-51 6-47 6-31q3-1 14-1h15q23 0 45 4t44 9 45 8 47 4v-37q-9 0-27-1t-40-6-44-8-40-10-29-10-12-10V60q48 0 94 3t93 6 94 7 94 3q0-12-7-19t-19-12-22-7-19-3q-4-1-25-3t-52-6-69-8-75-8-70-7-55-6q-3-1-9-1v37l-35 194q-5 5-22 6t-41-1-51-5-52-5-45-2-29 7V19H21v11q0 8 1 18t1 17 1 11q6 58 9 117t9 116 13 107 25 92 40 71 60 44q37 0 64-21t48-58l7-12q0 2-1 6Zm-102 39q-26 0-43-18t-29-48-17-66-8-70-2-64-1-46q49 0 100 7t96 16q1 4 1 13t1 20 1 21 1 13q0 33-3 63t-14 58-30 54-53 47Z"/><glyph unicode="Ç" glyph-name="Ccedilla" horiz-adv-x="436" d="M166-172q12 0 22-5t21-12 21-12 23-5q13-3 30 5t31 20 20 27-3 24-36 15-79-4q-10 0-19 6t-17 17-12 22-5 22q-6 30 3 49l2 4q-36 4-62 21-35 24-56 61t-29 84-8 92q0 31 6 69t20 78 32 77 45 67 58 48 72 18q28 0 47-11t32-29 17-40 6-46q-22 0-33 13t-20 30-22 30-38 14q-33 0-58-18t-45-46-31-65-20-72-11-69-3-57q-4-34-1-70t17-67 38-51 66-24q26 0 58 8t63 20 61 25 49 24V76q-1 0-12-4t-30-12-42-15l-47-17q-23-8-44-15T206 0h-4q-2-1-3 0 3-18-9-58 0-16 12-19t31-2 40 2 41-3 31-22 13-52q0-22-10-38t-26-27-35-15-40-2q-8 1-22 5t-27 12-22 19-10 28Z"/><glyph unicode="È" glyph-name="Egrave" horiz-adv-x="504" d="M14 538q16 23 42 39t59 28 70 17 74 9 70 4 60 1h9q7 0 15-1t14-1 10 0q4-22-4-30t-22-10-29 0-22 1q-10-1-31-5t-48-10-55-12-56-12-48-11-31-7q-16-6-18-15t-2-21q0-21 2-47t6-51 7-47 5-31q4-1 15-1t15 0q23 0 45 4t44 9 45 8 47 4v-37q-10 0-28-1t-39-6-44-8-40-10-29-10-12-10V60q47 0 93 3t94 6 94 7 94 3q0-12-8-19t-18-12-23-7-18-3q-4-1-25-3t-52-6-69-8-75-8-70-7-55-6q-3-1-9-1 0 134-8 270T14 538Zm211 270q18-18 27-32t17-29 15-32 23-41q0-7-3-9t-8-4-12-3-15-6q-13 22-20 35t-13 24-15 24-24 37l28 36Z"/><glyph unicode="É" glyph-name="Eacute" horiz-adv-x="504" d="M14 538q16 23 42 39t59 28 70 17 74 9 70 4 60 1h9q7 0 15-1t14-1 10 0q4-22-4-30t-22-10-29 0-22 1q-10-1-31-5t-48-10-55-12-56-12-48-11-31-7q-16-6-18-15t-2-21q0-21 2-47t6-51 7-47 5-31q4-1 15-1t15 0q23 0 45 4t44 9 45 8 47 4v-37q-10 0-28-1t-39-6-44-8-40-10-29-10-12-10V60q47 0 93 3t94 6 94 7 94 3q0-12-8-19t-18-12-23-7-18-3q-4-1-25-3t-52-6-69-8-75-8-70-7-55-6q-3-1-9-1 0 134-8 270T14 538Zm298 235q-13-18-26-31t-25-27-25-28-26-31l-29 15q35 45 54 73t28 42 13 16 5-1 9-12 22-16Z"/><glyph unicode="Ê" glyph-name="Ecircumflex" horiz-adv-x="504" d="M14 538q16 23 42 39t59 28 70 17 74 9 70 4 60 1h9q7 0 15-1t14-1 10 0q4-22-4-30t-22-10-29 0-22 1q-10-1-31-5t-48-10-55-12-56-12-48-11-31-7q-16-6-18-15t-2-21q0-21 2-47t6-51 7-47 5-31q4-1 15-1t15 0q23 0 45 4t44 9 45 8 47 4v-37q-10 0-28-1t-39-6-44-8-40-10-29-10-12-10V60q47 0 93 3t94 6 94 7 94 3q0-12-8-19t-18-12-23-7-18-3q-4-1-25-3t-52-6-69-8-75-8-70-7-55-6q-3-1-9-1 0 134-8 270T14 538Zm247 292q-13-17-26-31t-25-27-24-28-27-31l-29 15 134 182q18-18 31-39t26-44 24-47 27-48q0-7-3-9t-8-4-12-3-15-6q-13 22-20 35t-14 24-14 25-25 36Z"/><glyph unicode="Ë" glyph-name="Edieresis" horiz-adv-x="504" d="M14 538q16 23 42 39t59 28 70 17 74 9 70 4 60 1h9q7 0 15-1t14-1 10 0q4-22-4-30t-22-10-29 0-22 1q-10-1-31-5t-48-10-55-12-56-12-48-11-31-7q-16-6-18-15t-2-21q0-21 2-47t6-51 7-47 5-31q4-1 15-1t15 0q23 0 45 4t44 9 45 8 47 4v-37q-10 0-28-1t-39-6-44-8-40-10-29-10-12-10V60q47 0 93 3t94 6 94 7 94 3q0-12-8-19t-18-12-23-7-18-3q-4-1-25-3t-52-6-69-8-75-8-70-7-55-6q-3-1-9-1 0 134-8 270T14 538Zm115 160q-3 15 1 23t12 12 18 5 18 1q8 0 17-1t18-5 12-12 0-23q-3-14-17-27t-30-13q-8 0-16 3t-14 10-11 13-8 14Zm148 0q-4 15 0 23t13 12 18 5 18 1q7 0 17-1t18-5 12-12 0-23q-1-7-6-14t-11-13-15-9-15-4q-17 0-31 13t-18 27Z"/><glyph unicode="Ì" glyph-name="Igrave" horiz-adv-x="100" d="M14 703q0 12 8 19t21 8h10q5-84 9-159t6-149 4-145 1-152q0-11 1-30t3-37 3-32 2-16L39 2q-2 41-4 94t-3 114-3 125-4 128-5 121-6 107v12Zm0 222q18-18 27-32t17-29 15-32 23-41q0-7-3-9t-8-4-12-3-15-6q-13 22-20 35t-13 24-15 24-24 37l28 36Z"/><glyph unicode="Í" glyph-name="Iacute" horiz-adv-x="100" d="M14 703q0 12 8 19t21 8h10q5-84 9-159t6-149 4-145 1-152q0-11 1-30t3-37 3-32 2-16L39 2q-2 41-4 94t-3 114-3 125-4 128-5 121-6 107v12Zm106 199q-13-18-26-31t-25-27-25-28-26-31l-29 15q35 45 54 73t28 42 13 16 5-1 9-12 22-16Z"/><glyph unicode="Î" glyph-name="Icircumflex" horiz-adv-x="100" d="M14 703q0 12 8 19t21 8h10q5-84 9-159t6-149 4-145 1-152q0-11 1-30t3-37 3-32 2-16L39 2q-2 41-4 94t-3 114-3 125-4 128-5 121-6 107v12Zm52 192q-13-17-26-31t-25-27-24-28-27-31l-29 15L69 975q18-18 31-39t26-44 24-47 27-48q0-7-3-9t-8-4-12-3-15-6q-13 22-20 35t-14 24-14 25-25 36Z"/><glyph unicode="Ï" glyph-name="Idieresis" horiz-adv-x="100" d="M14 703q0 12 8 19t21 8h10q5-84 9-159t6-149 4-145 1-152q0-11 1-30t3-37 3-32 2-16L39 2q-2 41-4 94t-3 114-3 125-4 128-5 121-6 107v12Zm-97 125q-3 15 1 23t12 12 18 5 18 1q8 0 17-1t18-5 12-12 0-23q-3-14-17-27t-30-13q-8 0-16 3t-14 10-11 13-8 14Zm148 0q-4 15 0 23t13 12 18 5 18 1q7 0 17-1t18-5 12-12 0-23q-1-7-6-14t-11-13-15-9-15-4q-17 0-31 13t-18 27Z"/><glyph unicode="Ð" glyph-name="Eth" horiz-adv-x="538" d="m21 222 1 1 5 2q5 2 11 2t23 5L38 499q-2 2-5 7t-6 11-5 12-3 9q0 9 8 14t18 6 19 1 12 0h8q5 0 12-1t12-1 7-1q33-12 75-28t88-37 88-47 77-60 55-74 21-89q0-42-16-75t-42-58-62-42-71-28-74-16-69-5h-24q-17 0-35 2T94 0 78 1l-2 37-12 146H50q-8 0-13-1-12 0-21 2T1 202l20 20Zm74 282v-21q0-7 1-14t0-9q1-12 1-35t2-54 3-65 4-70l34 3q8 4 24 4t29-3 17-14-12-25q-16-2-28-3t-23-3-19-3-20-3q2-50 4-91t3-60h19q13 0 29-1t28-1 20-1q46 0 91 11t80 35 58 61 23 91q0 39-18 74t-47 66-68 54-78 41-81 27-76 9Z"/><glyph unicode="Ñ" glyph-name="Ntilde" horiz-adv-x="533" d="M72 595v-13q0-10-1-20t0-20 0-13q0-65 3-130t7-130 7-132T91 5L55 7q-1 19-3 53t-6 78-8 96-8 103-8 104-5 94-4 77 0 52q0 12 9 20t21 8q12 0 27-5t21-15L451 91q0 46-2 99t-5 109-2 112 1 110 10 102 22 87q14 5 22 5t12 0 4-5 1-8v-11q-2-6-4-22t-7-47-7-82-6-124-4-176-1-238l-29-2L72 595Zm140 184q-11 8-17 3t-12-17-9-25-8-22-9-7-11 20q0 47 15 66t49 19q19-9 31-21t23-23 19-17 19-2 23 20 31 52q6 0 13-5t8-15q-16-41-31-61t-30-26-28 0-27 17-25 23-24 21Z"/><glyph unicode="Ò" glyph-name="Ograve" horiz-adv-x="442" d="M18 332q0 33 4 70t15 72 27 68 40 57 55 39 72 15q35 0 62-19t47-51 33-72 21-80 12-78 3-65q-4-59-17-108t-35-87-56-62-80-32q-45 0-77 16T89 57t-37 60-21 71-10 74-3 70Zm38 0q0-24 1-54t5-60 14-60 24-52 39-37 57-14q48-3 79 12t50 46 29 75 16 100q0 22-2 55t-7 69-15 72-25 66-37 48-52 18q-31 0-56-14t-44-38-34-54-24-61-13-62-5-55Zm137 515q18-18 27-32t17-29 15-32 23-41q0-7-3-9t-8-4-12-3-15-6q-13 22-20 35t-13 24-15 24-24 37l28 36Z"/><glyph unicode="Ó" glyph-name="Oacute" horiz-adv-x="442" d="M18 332q0 33 4 70t15 72 27 68 40 57 55 39 72 15q35 0 62-19t47-51 33-72 21-80 12-78 3-65q-4-59-17-108t-35-87-56-62-80-32q-45 0-77 16T89 57t-37 60-21 71-10 74-3 70Zm38 0q0-24 1-54t5-60 14-60 24-52 39-37 57-14q48-3 79 12t50 46 29 75 16 100q0 22-2 55t-7 69-15 72-25 66-37 48-52 18q-31 0-56-14t-44-38-34-54-24-61-13-62-5-55Zm223 459q-13-18-26-31t-25-27-25-28-26-31l-29 15q35 45 54 73t28 42 13 16 5-1 9-12 22-16Z"/><glyph unicode="Ô" glyph-name="Ocircumflex" horiz-adv-x="442" d="M18 332q0 33 4 70t15 72 27 68 40 57 55 39 72 15q35 0 62-19t47-51 33-72 21-80 12-78 3-65q-4-59-17-108t-35-87-56-62-80-32q-45 0-77 16T89 57t-37 60-21 71-10 74-3 70Zm38 0q0-24 1-54t5-60 14-60 24-52 39-37 57-14q48-3 79 12t50 46 29 75 16 100q0 22-2 55t-7 69-15 72-25 66-37 48-52 18q-31 0-56-14t-44-38-34-54-24-61-13-62-5-55Zm174 498q-13-17-26-31t-25-27-24-28-27-31l-29 15 134 182q18-18 31-39t26-44 24-47 27-48q0-7-3-9t-8-4-12-3-15-6q-13 22-20 35t-14 24-14 25-25 36Z"/><glyph unicode="Õ" glyph-name="Otilde" horiz-adv-x="442" d="M18 332q0 33 4 70t15 72 27 68 40 57 55 39 72 15q35 0 62-19t47-51 33-72 21-80 12-78 3-65q-4-59-17-108t-35-87-56-62-80-32q-45 0-77 16T89 57t-37 60-21 71-10 74-3 70Zm38 0q0-24 1-54t5-60 14-60 24-52 39-37 57-14q48-3 79 12t50 46 29 75 16 100q0 22-2 55t-7 69-15 72-25 66-37 48-52 18q-31 0-56-14t-44-38-34-54-24-61-13-62-5-55Zm117 429q-11 8-17 3t-12-17-9-25-8-22-9-7-11 20q0 47 15 66t49 19q19-9 31-21t23-23 19-17 19-2 23 20 31 52q6 0 13-5t8-15q-16-41-31-61t-30-26-28 0-27 17-25 23-24 21Z"/><glyph unicode="Ö" glyph-name="Odieresis" horiz-adv-x="442" d="M18 332q0 33 4 70t15 72 27 68 40 57 55 39 72 15q35 0 62-19t47-51 33-72 21-80 12-78 3-65q-4-59-17-108t-35-87-56-62-80-32q-45 0-77 16T89 57t-37 60-21 71-10 74-3 70Zm38 0q0-24 1-54t5-60 14-60 24-52 39-37 57-14q48-3 79 12t50 46 29 75 16 100q0 22-2 55t-7 69-15 72-25 66-37 48-52 18q-31 0-56-14t-44-38-34-54-24-61-13-62-5-55Zm45 395q-3 15 1 23t12 12 18 5 18 1q8 0 17-1t18-5 12-12 0-23q-3-14-17-27t-30-13q-8 0-16 3t-14 10-11 13-8 14Zm148 0q-4 15 0 23t13 12 18 5 18 1q7 0 17-1t18-5 12-12 0-23q-1-7-6-14t-11-13-15-9-15-4q-17 0-31 13t-18 27Z"/><glyph unicode="×" glyph-name="multiply" horiz-adv-x="281" d="m54 341 46 31 57-65 54 99 39-28-56-119 65-76-38-20-55 69q-10-18-15-30t-9-22-7-21-11-24l-39 10 45 125-76 71Z"/><glyph unicode="Ø" glyph-name="Oslash" horiz-adv-x="442" d="M295 642q3 7 7 16t10 12 16-2 21-26l-16-49q4-5 7-10 20-32 33-72t21-80 12-78 3-65q-4-59-17-108t-35-87-56-62-80-32q-45 0-77 16l-8 4-14-42-43 37 13 38-4 5q-22 26-36 60t-21 71-10 74-3 70q0 33 4 70t15 72 27 68 40 57 55 39 72 15q34 0 61-19l3 8ZM56 332q0-24 1-54t5-60 14-60 24-52q3-6 7-10l173 503q-20 17-48 17-31 0-56-14t-44-38-34-54-24-61-13-62-5-55ZM196 55q48-3 79 12t50 46 29 75 16 100q0 22-2 55t-7 69-15 72-26 66l-1 3L151 63q20-8 45-8Z"/><glyph unicode="Ù" glyph-name="Ugrave" horiz-adv-x="518" d="M398 250q-40-101-79-156t-76-73-70-5-60 51-47 95-31 125-12 142 11 147l39-4q-11-128-3-222t28-158 44-96 48-38q34 0 60 18t47 47 35 66 24 75 13 73 4 62q0 34-2 60t-6 53-10 53-13 64l49 36q23-145 39-248t29-173 19-111 11-65 6-33 2-16h-41l-58 231ZM185 837q18-18 27-32t17-29 15-32 23-41q0-7-3-9t-8-4-12-3-15-6q-13 22-20 35t-13 24-15 24-24 37l28 36Z"/><glyph unicode="Ú" glyph-name="Uacute" horiz-adv-x="518" d="M398 250q-40-101-79-156t-76-73-70-5-60 51-47 95-31 125-12 142 11 147l39-4q-11-128-3-222t28-158 44-96 48-38q34 0 60 18t47 47 35 66 24 75 13 73 4 62q0 34-2 60t-6 53-10 53-13 64l49 36q23-145 39-248t29-173 19-111 11-65 6-33 2-16h-41l-58 231Zm-79 523q-13-18-26-31t-25-27-25-28-26-31l-29 15q35 45 54 73t28 42 13 16 5-1 9-12 22-16Z"/><glyph unicode="Û" glyph-name="Ucircumflex" horiz-adv-x="518" d="M398 250q-40-101-79-156t-76-73-70-5-60 51-47 95-31 125-12 142 11 147l39-4q-11-128-3-222t28-158 44-96 48-38q34 0 60 18t47 47 35 66 24 75 13 73 4 62q0 34-2 60t-6 53-10 53-13 64l49 36q23-145 39-248t29-173 19-111 11-65 6-33 2-16h-41l-58 231ZM193 819q-13-17-26-31t-25-27-24-28-27-31l-29 15 134 182q18-18 31-39t26-44 24-47 27-48q0-7-3-9t-8-4-12-3-15-6q-13 22-20 35t-14 24-14 25-25 36Z"/><glyph unicode="Ü" glyph-name="Udieresis" horiz-adv-x="518" d="M398 250q-40-101-79-156t-76-73-70-5-60 51-47 95-31 125-12 142 11 147l39-4q-11-128-3-222t28-158 44-96 48-38q34 0 60 18t47 47 35 66 24 75 13 73 4 62q0 34-2 60t-6 53-10 53-13 64l49 36q23-145 39-248t29-173 19-111 11-65 6-33 2-16h-41l-58 231ZM69 698q-3 15 1 23t12 12 18 5 18 1q8 0 17-1t18-5 12-12 0-23q-3-14-17-27t-30-13q-8 0-16 3t-14 10-11 13-8 14Zm148 0q-4 15 0 23t13 12 18 5 18 1q7 0 17-1t18-5 12-12 0-23q-1-7-6-14t-11-13-15-9-15-4q-17 0-31 13t-18 27Z"/><glyph unicode="Ý" glyph-name="Yacute" horiz-adv-x="454" d="M292 326q-15 22-40 54t-55 69-60 78-57 77-47 70-29 56l20 18q37-40 64-73t50-63 40-57 37-54 43-56 54-61q6 28 11 62t12 72 13 75 16 74 19 67 25 53q1 1 4 1t6 0q3 0 8-1t11-3 8-7 1-9q-11-23-22-62t-22-87-20-105-16-115-14-115-9-108-3-91 5-66q-2-11-3-16t-7-9-15-3-28-1v336Zm14 601q-13-18-26-31t-25-27-25-28-26-31l-29 15q35 45 54 73t28 42 13 16 5-1 9-12 22-16Z"/><glyph unicode="Þ" glyph-name="Thorn" horiz-adv-x="343" d="M58 564q-1-32-1-48t1-26 0-13 0-11-1-20-2-40q16 13 29 24t27 19 26 12 32 4q36 0 66-18t51-46 32-62 12-68q-2-57-23-90t-55-51-81-21-98 0v47q18-16 33-18t36-3q33 0 60 10t46 29 30 44 11 57q0 27-3 48t-13 38-30 33-54 30q-2 1-9 2t-11 1q-16 0-31-9t-29-24-22-32-14-34q-1-7-2-33t-3-60-2-74-3-73-2-60-2-34L28 0l-9 564h39Z"/><glyph unicode="ß" glyph-name="germandbls" horiz-adv-x="450" d="M78-128q-3 0-8 27T58-28 47 76t-7 120 0 120 10 107 23 78 42 34q34 4 71 5t69-8 51-30 21-61q0-20-4-39t-16-36-32-30-52-23q42 3 78-7t63-32 43-52 16-68q0-43-26-74t-66-50-89-30-94-11l5 46q34 3 75 9t76 19 58 35 23 60q0 37-14 59t-38 35-51 17-56 6-52 2-38 3l7 57q26 3 51 9t47 17 34 30 14 49v11q0 7-2 14t-13 15-29 12-52 6-82-4q-3-9-8-44t-8-86-5-114 1-128T103-6t27-116l-52-6Z"/><glyph unicode="à" glyph-name="agrave" horiz-adv-x="346" d="M19 86q0 57 31 83t83 26q20 0 37-1t34-5 31-12 33-23v12q0 9 1 21t0 20 0 14q-1 18-1 46t-4 59-18 57-44 41q-21 0-39-7t-36-15-36-14-39-7q0 25 15 41t38 26 46 12 42 3q18-3 33-7t29-16 25-36 20-69 15-111 11-166q2-13-8-22t-29-16-40-11-46-7-44-3-35-1q-18 0-36 6T54 21 29 49 19 86Zm130 70q-50-14-70-33T61 85t24-32 51-19 65 4 67 38q-12 29-24 44t-26 24-31 10-38 2Zm-3 498q18-18 27-32t17-29 15-32 23-41q0-7-3-9t-8-4-12-3-15-6q-13 22-20 35t-13 24-15 24-24 37l28 36Z"/><glyph unicode="á" glyph-name="aacute" horiz-adv-x="346" d="M19 86q0 57 31 83t83 26q20 0 37-1t34-5 31-12 33-23v12q0 9 1 21t0 20 0 14q-1 18-1 46t-4 59-18 57-44 41q-21 0-39-7t-36-15-36-14-39-7q0 25 15 41t38 26 46 12 42 3q18-3 33-7t29-16 25-36 20-69 15-111 11-166q2-13-8-22t-29-16-40-11-46-7-44-3-35-1q-18 0-36 6T54 21 29 49 19 86Zm130 70q-50-14-70-33T61 85t24-32 51-19 65 4 67 38q-12 29-24 44t-26 24-31 10-38 2Zm85 463q-13-18-26-31t-25-27-25-28-26-31l-29 15q35 45 54 73t28 42 13 16 5-1 9-12 22-16Z"/><glyph unicode="â" glyph-name="acircumflex" horiz-adv-x="346" d="M19 86q0 57 31 83t83 26q20 0 37-1t34-5 31-12 33-23v12q0 9 1 21t0 20 0 14q-1 18-1 46t-4 59-18 57-44 41q-21 0-39-7t-36-15-36-14-39-7q0 25 15 41t38 26 46 12 42 3q18-3 33-7t29-16 25-36 20-69 15-111 11-166q2-13-8-22t-29-16-40-11-46-7-44-3-35-1q-18 0-36 6T54 21 29 49 19 86Zm130 70q-50-14-70-33T61 85t24-32 51-19 65 4 67 38q-12 29-24 44t-26 24-31 10-38 2Zm33 520q-13-17-26-31t-25-27-24-28-27-31l-29 15 134 182q18-18 31-39t26-44 24-47 27-48q0-7-3-9t-8-4-12-3-15-6q-13 22-20 35t-14 24-14 25-25 36Z"/><glyph unicode="ã" glyph-name="atilde" horiz-adv-x="346" d="M19 86q0 57 31 83t83 26q20 0 37-1t34-5 31-12 33-23v12q0 9 1 21t0 20 0 14q-1 18-1 46t-4 59-18 57-44 41q-21 0-39-7t-36-15-36-14-39-7q0 25 15 41t38 26 46 12 42 3q18-3 33-7t29-16 25-36 20-69 15-111 11-166q2-13-8-22t-29-16-40-11-46-7-44-3-35-1q-18 0-36 6T54 21 29 49 19 86Zm130 70q-50-14-70-33T61 85t24-32 51-19 65 4 67 38q-12 29-24 44t-26 24-31 10-38 2Zm-27 394q-11 8-17 3t-12-17-9-25-8-22-9-7-11 20q0 47 15 66t49 19q19-9 31-21t23-23 19-17 19-2 23 20 31 52q6 0 13-5t8-15q-16-41-31-61t-30-26-28 0-27 17-25 23-24 21Z"/><glyph unicode="ä" glyph-name="adieresis" horiz-adv-x="346" d="M19 86q0 57 31 83t83 26q20 0 37-1t34-5 31-12 33-23v12q0 9 1 21t0 20 0 14q-1 18-1 46t-4 59-18 57-44 41q-21 0-39-7t-36-15-36-14-39-7q0 25 15 41t38 26 46 12 42 3q18-3 33-7t29-16 25-36 20-69 15-111 11-166q2-13-8-22t-29-16-40-11-46-7-44-3-35-1q-18 0-36 6T54 21 29 49 19 86Zm130 70q-50-14-70-33T61 85t24-32 51-19 65 4 67 38q-12 29-24 44t-26 24-31 10-38 2ZM50 544q-3 15 1 23t12 12 18 5 18 1q8 0 17-1t18-5 12-12 0-23q-3-14-17-27t-30-13q-8 0-16 3t-14 10-11 13-8 14Zm148 0q-4 15 0 23t13 12 18 5 18 1q7 0 17-1t18-5 12-12 0-23q-1-7-6-14t-11-13-15-9-15-4q-17 0-31 13t-18 27Z"/><glyph unicode="å" glyph-name="aring" horiz-adv-x="346" d="M121 512q0 8 1 19t6 21 12 17 22 8q37 0 55-20t18-48q0-8-3-18t-10-21q-5-6-11-11l15-3q16-4 29-16t25-36 20-69 15-111 11-166q2-13-8-22t-29-16-40-11-46-7-44-3-35-1q-18 0-36 6T54 21 29 49 19 86q0 57 31 83t83 26q20 0 37-1t34-5 31-12 33-23v12q0 9 1 21v34q-1 18-1 46t-4 59-18 57-44 41q-21 0-39-7t-36-15-36-14-39-7q0 25 15 41t38 26q19 7 40 11-6 4-11 10-7 10-10 21t-3 22Zm28-356q-50-14-70-33T61 85t24-32 51-19 65 4 67 38q-12 29-24 44t-26 24-31 10-38 2Zm-7 356q9-26 19-33t20-5 15 16 11 24q-3 21-15 31t-25 10-21-11-4-32Z"/><glyph unicode="æ" glyph-name="ae" horiz-adv-x="580" d="M19 86q0 57 31 83t83 26q20 0 37-1t34-5 31-12 33-23v12q0 9 1 21v34q-1 18-1 46t-4 59-18 57-44 41q-21 0-39-7t-36-15-36-14-39-7q0 25 15 41t38 26 46 12 42 3q18-3 33-7t29-16 25-36 20-70l2-10q11 24 26 46 23 31 52 52t59 22q17 0 34-7t32-18 27-26 20-31 7-31-8-26l-211-39q-3-1-6-9t-5-22-4-28-3-31q0-12-1-22 1-21 3-45 3-12 10-21 14-18 35-27t47-12 53-3 49 2 38 2q0-4-3-9t-7-9-7-8-6-5q-7-2-24-5t-35-7-35-5-21-2q-32-6-55 1t-39 24q-4 4-8 9-10-9-27-15-18-6-40-10t-46-7-44-3-35-1q-18 0-36 6T54 21 29 49 19 86Zm130 70q-50-14-70-33T61 85t24-32 51-19 65 4 67 38q-12 29-24 44t-26 24-31 10-38 2Zm276 250q-9 0-23-9t-27-24-21-31-6-29q26-3 54 1t51 12 38 20 15 24-19 21-62 15Z"/><glyph unicode="ç" glyph-name="ccedilla" horiz-adv-x="375" d="M107-158q12 0 22-5t21-12 21-12 23-5q14-2 31 5t30 20 20 27-2 25-36 14-80-3q-9 0-19 6t-17 16-12 22-5 22q-5 30 3 48l2 3Q82 28 63 49q-21 24-32 55t-12 67q0 37 12 82t35 83 57 65 79 26q23 3 37-4t21-24 10-36 3-42 1-40 1-31h-25q-1 6-3 28t-9 47-16 43-30 19q-28 0-52-22t-43-53-29-64-11-55q1-25 7-54t19-54 36-39 54-9q24 0 46 10t43 21 42 21 46 10q0-26-19-45t-46-32-58-18-52-6q-18 0-34 3-1-17-10-45 0-15 12-18t31-3 41 2 40-3 31-22 13-52q0-22-10-38t-26-27-35-15-39-1q-8 0-22 4t-27 12-23 20-10 27Z"/><glyph unicode="è" glyph-name="egrave" horiz-adv-x="337" d="M26 235q0 30 13 66t35 68 51 53 60 22q17 0 33-7t32-18 28-26 20-31 7-31-8-26L86 266q-4-1-7-9t-5-22-3-28-3-30-1-26 0-18q0-28 13-45t35-27 47-12 53-3 49 2 38 2q0-4-3-9t-7-9-8-8-5-5q-8-2-24-5t-35-7-35-5-22-2q-31-6-54 1T70 25 44 66t-15 53-5 58 2 58Zm145 171q-9 0-23-9t-27-24-21-31-6-29q26-3 54 1t51 12 38 20 15 24-19 21-62 15Zm-30 248q18-18 27-32t17-29 15-32 23-41q0-7-3-9t-8-4-12-3-15-6q-13 22-20 35t-13 24-15 24-24 37l28 36Z"/><glyph unicode="é" glyph-name="eacute" horiz-adv-x="337" d="M26 235q0 30 13 66t35 68 51 53 60 22q17 0 33-7t32-18 28-26 20-31 7-31-8-26L86 266q-4-1-7-9t-5-22-3-28-3-30-1-26 0-18q0-28 13-45t35-27 47-12 53-3 49 2 38 2q0-4-3-9t-7-9-8-8-5-5q-8-2-24-5t-35-7-35-5-22-2q-31-6-54 1T70 25 44 66t-15 53-5 58 2 58Zm145 171q-9 0-23-9t-27-24-21-31-6-29q26-3 54 1t51 12 38 20 15 24-19 21-62 15Zm57 213q-13-18-26-31t-25-27-25-28-26-31l-29 15q35 45 54 73t28 42 13 16 5-1 9-12 22-16Z"/><glyph unicode="ê" glyph-name="ecircumflex" horiz-adv-x="337" d="M26 235q0 30 13 66t35 68 51 53 60 22q17 0 33-7t32-18 28-26 20-31 7-31-8-26L86 266q-4-1-7-9t-5-22-3-28-3-30-1-26 0-18q0-28 13-45t35-27 47-12 53-3 49 2 38 2q0-4-3-9t-7-9-8-8-5-5q-8-2-24-5t-35-7-35-5-22-2q-31-6-54 1T70 25 44 66t-15 53-5 58 2 58Zm145 171q-9 0-23-9t-27-24-21-31-6-29q26-3 54 1t51 12 38 20 15 24-19 21-62 15Zm9 440q-13-17-26-31t-25-27-24-28-27-31l-29 15 134 182q18-18 31-39t26-44 24-47 27-48q0-7-3-9t-8-4-12-3-15-6q-13 22-20 35t-14 24-14 25-25 36Z"/><glyph unicode="ë" glyph-name="edieresis" horiz-adv-x="337" d="M26 235q0 30 13 66t35 68 51 53 60 22q17 0 33-7t32-18 28-26 20-31 7-31-8-26L86 266q-4-1-7-9t-5-22-3-28-3-30-1-26 0-18q0-28 13-45t35-27 47-12 53-3 49 2 38 2q0-4-3-9t-7-9-8-8-5-5q-8-2-24-5t-35-7-35-5-22-2q-31-6-54 1T70 25 44 66t-15 53-5 58 2 58Zm145 171q-9 0-23-9t-27-24-21-31-6-29q26-3 54 1t51 12 38 20 15 24-19 21-62 15ZM46 544q-3 15 1 23t12 12 18 5 18 1q8 0 17-1t18-5 12-12 0-23q-3-14-17-27t-30-13q-8 0-16 3t-14 10-11 13-8 14Zm148 0q-4 15 0 23t13 12 18 5 18 1q7 0 17-1t18-5 12-12 0-23q-1-7-6-14t-11-13-15-9-15-4q-17 0-31 13t-18 27Z"/><glyph unicode="ì" glyph-name="igrave" horiz-adv-x="145" d="M67 388q12 0 20 1t15-10q3-45 7-91t8-94 5-94 1-93q0-6-3-7t-8-2-13 1-17-1L67 388Zm236 266q18-18 27-32t17-29 15-32 23-41q0-7-3-9t-8-4-12-3-15-6q-13 22-20 35t-13 24-15 24-24 37l28 36Z"/><glyph unicode="í" glyph-name="iacute" horiz-adv-x="145" d="M67 388q12 0 20 1t15-10q3-45 7-91t8-94 5-94 1-93q0-6-3-7t-8-2-13 1-17-1L67 388Zm323 231q-13-18-26-31t-25-27-25-28-26-31l-29 15q35 45 54 73t28 42 13 16 5-1 9-12 22-16Z"/><glyph unicode="î" glyph-name="icircumflex" horiz-adv-x="145" d="M67 388q12 0 20 1t15-10q3-45 7-91t8-94 5-94 1-93q0-6-3-7t-8-2-13 1-17-1L67 388Zm274 288q-13-17-26-31t-25-27-24-28-27-31l-29 15 134 182q18-18 31-39t26-44 24-47 27-48q0-7-3-9t-8-4-12-3-15-6q-13 22-20 35t-14 24-14 25-25 36Z"/><glyph unicode="ï" glyph-name="idieresis" horiz-adv-x="145" d="M67 388q12 0 20 1t15-10q3-45 7-91t8-94 5-94 1-93q0-6-3-7t-8-2-13 1-17-1L67 388Zm141 156q-3 15 1 23t12 12 18 5 18 1q8 0 17-1t18-5 12-12 0-23q-3-14-17-27t-30-13q-8 0-16 3t-14 10-11 13-8 14Zm148 0q-4 15 0 23t13 12 18 5 18 1q7 0 17-1t18-5 12-12 0-23q-1-7-6-14t-11-13-15-9-15-4q-17 0-31 13t-18 27Z"/><glyph unicode="ð" glyph-name="eth" horiz-adv-x="331" d="M335 388q-10-6-18-11t-16-10-17-9-24-9q22-28 35-64t18-74 1-75-19-68-39-52-57-29q-36-3-67 3T75 14 35 65t-16 80q0 30 9 49t25 31 34 15 37 4q30 4 51-4t38-28 28-47 20-64q8 27 6 55t-12 57-21 60-23 64q-12 2-25 1t-26-4-23-5-18-1q-8 7-12 18t-4 27q19 6 39 9t50 6q-13 32-27 62t-29 59l42 29q15-27 30-64t42-76q9 2 21 9t22 13 18 11 9-1l15-42ZM115 205q-10 0-21-1t-22-8-16-18-7-33q0-22 10-38t26-29 37-21 39-13 38-8 28-2q0 32-7 62t-22 55-35 39-48 15Z"/><glyph unicode="ñ" glyph-name="ntilde" horiz-adv-x="405" d="M34 5q-2 16-3 46t-3 69-3 81-2 80-2 68-5 47v5q0 4-1 9t-1 8 0 6q15 12 25 8t18-17 10-34 4-40 2-36 0-24q2 17 6 40t12 47 19 47 29 42 38 28 50 8q44-2 72-24t45-59 24-85 10-102 2-109-1-107q-9-2-18-6t-15-5-8 9 1 34q1 18 3 55t3 84-6 95-18 89-39 66-65 26q-41-17-68-64t-44-110-24-136T72 0q-2 1-7 1T53 1 41 3t-7 2Zm132 621q-11 8-17 3t-12-17-9-25-8-22-9-7-11 20q0 47 15 66t49 19q19-9 31-21t23-23 19-17 19-2 23 20 31 52q6 0 13-5t8-15q-16-41-31-61t-30-26-28 0-27 17-25 23-24 21Z"/><glyph unicode="ò" glyph-name="ograve" horiz-adv-x="371" d="M24 183q0 23 4 53t13 62 22 61 33 53 44 38 56 15q32 0 59-22t47-57 30-78 8-84q0-60-23-107t-58-76-76-39-76 5-59 59-24 117Zm37-4q3-61 21-94t43-43 56-1 56 35 44 64 21 87q2 36-5 70t-21 60-33 42-45 16q-24 0-43-12t-34-32-27-47-18-52-11-50-4-43Zm97 475q18-18 27-32t17-29 15-32 23-41q0-7-3-9t-8-4-12-3-15-6q-13 22-20 35t-13 24-15 24-24 37l28 36Z"/><glyph unicode="ó" glyph-name="oacute" horiz-adv-x="371" d="M24 183q0 23 4 53t13 62 22 61 33 53 44 38 56 15q32 0 59-22t47-57 30-78 8-84q0-60-23-107t-58-76-76-39-76 5-59 59-24 117Zm37-4q3-61 21-94t43-43 56-1 56 35 44 64 21 87q2 36-5 70t-21 60-33 42-45 16q-24 0-43-12t-34-32-27-47-18-52-11-50-4-43Zm185 440q-13-18-26-31t-25-27-25-28-26-31l-29 15q35 45 54 73t28 42 13 16 5-1 9-12 22-16Z"/><glyph unicode="ô" glyph-name="ocircumflex" horiz-adv-x="371" d="M24 183q0 23 4 53t13 62 22 61 33 53 44 38 56 15q32 0 59-22t47-57 30-78 8-84q0-60-23-107t-58-76-76-39-76 5-59 59-24 117Zm37-4q3-61 21-94t43-43 56-1 56 35 44 64 21 87q2 36-5 70t-21 60-33 42-45 16q-24 0-43-12t-34-32-27-47-18-52-11-50-4-43Zm134 497q-13-17-26-31t-25-27-24-28-27-31l-29 15 134 182q18-18 31-39t26-44 24-47 27-48q0-7-3-9t-8-4-12-3-15-6q-13 22-20 35t-14 24-14 25-25 36Z"/><glyph unicode="õ" glyph-name="otilde" horiz-adv-x="371" d="M24 183q0 23 4 53t13 62 22 61 33 53 44 38 56 15q32 0 59-22t47-57 30-78 8-84q0-60-23-107t-58-76-76-39-76 5-59 59-24 117Zm37-4q3-61 21-94t43-43 56-1 56 35 44 64 21 87q2 36-5 70t-21 60-33 42-45 16q-24 0-43-12t-34-32-27-47-18-52-11-50-4-43Zm75 371q-11 8-17 3t-12-17-9-25-8-22-9-7-11 20q0 47 15 66t49 19q19-9 31-21t23-23 19-17 19-2 23 20 31 52q6 0 13-5t8-15q-16-41-31-61t-30-26-28 0-27 17-25 23-24 21Z"/><glyph unicode="ö" glyph-name="odieresis" horiz-adv-x="371" d="M24 183q0 23 4 53t13 62 22 61 33 53 44 38 56 15q32 0 59-22t47-57 30-78 8-84q0-60-23-107t-58-76-76-39-76 5-59 59-24 117Zm37-4q3-61 21-94t43-43 56-1 56 35 44 64 21 87q2 36-5 70t-21 60-33 42-45 16q-24 0-43-12t-34-32-27-47-18-52-11-50-4-43Zm2 365q-3 15 1 23t12 12 18 5 18 1q8 0 17-1t18-5 12-12 0-23q-3-14-17-27t-30-13q-8 0-16 3t-14 10-11 13-8 14Zm148 0q-4 15 0 23t13 12 18 5 18 1q7 0 17-1t18-5 12-12 0-23q-1-7-6-14t-11-13-15-9-15-4q-17 0-31 13t-18 27Z"/><glyph unicode="÷" glyph-name="divide" horiz-adv-x="284" d="M135 346q0 15 7 27t24 12q17 0 24-12t7-28q0-17-7-27t-34-11q-8 0-12 4t-6 11-2 13-1 11ZM97 586q0 9 4 15t13 8 24-1 37-13q-10-15-20-27t-27-12q-13 0-22 9t-9 21ZM34 230q0 1 9 2t28 2 51 4 76 6q4 0 13 1t18 1 18 2 14 1q0-14-5-24t-19-18q-24-2-43-4t-39-4-39-3-44-4h-9q-7 0-12-1-13 0-22 2t-15 18l20 19Z"/><glyph unicode="ø" glyph-name="oslash" horiz-adv-x="371" d="M232 497q2 6 5 13t7 10 11-1 16-22l-16-54v-1q28-21 47-56t30-78 8-84q0-60-23-107t-58-76-77-39q-30-7-58-1l-15-52-30 30 11 37Q65 34 47 66q-23 43-23 117 0 23 4 53t13 62 22 61 33 53 44 38 56 15q13 0 26-4l10 36ZM181 41q30 10 56 35t44 64 21 87q2 36-5 70t-21 60-34 43L135 38q22-5 46 3ZM61 179q3-61 21-94 9-17 20-27l106 357h-10q-24 0-43-12t-34-32-27-47-18-52-11-50-4-43Z"/><glyph unicode="ù" glyph-name="ugrave" horiz-adv-x="458" d="M19 388q0 5 6 10t16 8 19 4 13-3q6-124 23-197t40-108 49-34 51 21 46 62 35 84 17 90-8 80l60 7q1-15 5-49t10-78 13-91 12-87 9-69 4-36h-43l-47 173q-14-35-34-67t-43-56-50-37-51-12-50 24-44 66-36 118-22 177Zm183 266q18-18 27-32t17-29 15-32 23-41q0-7-3-9t-8-4-12-3-15-6q-13 22-20 35t-13 24-15 24-24 37l28 36Z"/><glyph unicode="ú" glyph-name="uacute" horiz-adv-x="458" d="M19 388q0 5 6 10t16 8 19 4 13-3q6-124 23-197t40-108 49-34 51 21 46 62 35 84 17 90-8 80l60 7q1-15 5-49t10-78 13-91 12-87 9-69 4-36h-43l-47 173q-14-35-34-67t-43-56-50-37-51-12-50 24-44 66-36 118-22 177Zm270 231q-13-18-26-31t-25-27-25-28-26-31l-29 15q35 45 54 73t28 42 13 16 5-1 9-12 22-16Z"/><glyph unicode="û" glyph-name="ucircumflex" horiz-adv-x="458" d="M19 388q0 5 6 10t16 8 19 4 13-3q6-124 23-197t40-108 49-34 51 21 46 62 35 84 17 90-8 80l60 7q1-15 5-49t10-78 13-91 12-87 9-69 4-36h-43l-47 173q-14-35-34-67t-43-56-50-37-51-12-50 24-44 66-36 118-22 177Zm220 288q-13-17-26-31t-25-27-24-28-27-31l-29 15 134 182q18-18 31-39t26-44 24-47 27-48q0-7-3-9t-8-4-12-3-15-6q-13 22-20 35t-14 24-14 25-25 36Z"/><glyph unicode="ü" glyph-name="udieresis" horiz-adv-x="458" d="M19 388q0 5 6 10t16 8 19 4 13-3q6-124 23-197t40-108 49-34 51 21 46 62 35 84 17 90-8 80l60 7q1-15 5-49t10-78 13-91 12-87 9-69 4-36h-43l-47 173q-14-35-34-67t-43-56-50-37-51-12-50 24-44 66-36 118-22 177Zm88 156q-3 15 1 23t12 12 18 5 18 1q8 0 17-1t18-5 12-12 0-23q-3-14-17-27t-30-13q-8 0-16 3t-14 10-11 13-8 14Zm148 0q-4 15 0 23t13 12 18 5 18 1q7 0 17-1t18-5 12-12 0-23q-1-7-6-14t-11-13-15-9-15-4q-17 0-31 13t-18 27Z"/><glyph unicode="ý" glyph-name="yacute" horiz-adv-x="384" d="M214-410q0 50 9 103t18 106 16 106 2 104L10 431q22 20 35 22t15 1q7-10 23-37t38-63 46-76 45-76 37-64 22-39l46 371 50-25-108-858-45 3Zm38 1029q-13-18-26-31t-25-27-25-28-26-31l-29 15q35 45 54 73t28 42 13 16 5-1 9-12 22-16Z"/><glyph unicode="þ" glyph-name="thorn" horiz-adv-x="403" d="M26 595q0 5 8 9t17 5 17 1 8-6V461q0-22-1-31t0-13 2-2 5 3q27 13 60 15t67-6 66-26 57-42 41-56 21-68q0-52-28-95t-74-74-98-46T94 7l-6-114-39 4-23 698Zm154-218q-20-1-38 0t-30 1-19-11-2-30q1-10 1-32t0-49-1-58 0-58-1-50 2-32q13 2 35 2t48 5 55 12 53 26 42 44 25 70q0 39-13 69t-36 50-54 30-67 11Z"/><glyph unicode="ÿ" glyph-name="ydieresis" horiz-adv-x="384" d="M214-410q0 50 9 103t18 106 16 106 2 104L10 431q22 20 35 22t15 1q7-10 23-37t38-63 46-76 45-76 37-64 22-39l46 371 50-25-108-858-45 3ZM69 544q-3 15 1 23t12 12 18 5 18 1q8 0 17-1t18-5 12-12 0-23q-3-14-17-27t-30-13q-8 0-16 3t-14 10-11 13-8 14Zm148 0q-4 15 0 23t13 12 18 5 18 1q7 0 17-1t18-5 12-12 0-23q-1-7-6-14t-11-13-15-9-15-4q-17 0-31 13t-18 27Z"/><glyph unicode="–" glyph-name="endash" horiz-adv-x="309" d="M34 230q0 1 9 2t28 2 51 4 76 6q4 0 16 1t25 1 24 1 17 0q0-13-6-24t-18-18q-48-4-92-6t-92-7h-9q-7 0-12-1-13 0-22 2t-15 18l20 19Z"/><glyph unicode="—" glyph-name="emdash" horiz-adv-x="439" d="M10 230q2 2 27 3t63 1 86 2 94 2 86 3 65 5q0-14-5-24t-18-18q-19-1-49-1t-67-2-75-3-76-3-66-3-47-1H17q-5 0-9 4t-3 12 5 23Z"/><glyph unicode="‘" glyph-name="quoteleft" horiz-adv-x="91" d="M14 691q0 5 8 12t12 7q25-16 32-42t7-55v-31q0-9-5-16t-15-10q-8 3-15 22t-12 42-9 44-3 27Z"/><glyph unicode="’" glyph-name="quoteright" horiz-adv-x="91" d="M14 691q0 5 8 12t12 7q25-16 32-42t7-55v-31q0-9-5-16t-15-10q-8 3-15 22t-12 42-9 44-3 27Z"/><glyph unicode="‚" glyph-name="quotesinglbase" horiz-adv-x="123" d="M28 67q0 5 7 12t12 8q26-17 33-43t8-54v-15q0-9-1-17t-6-16-14-9q-9 2-15 21T40-4t-9 44-3 27Z"/><glyph unicode="“" glyph-name="quotedblleft" horiz-adv-x="216" d="M133 633v19q0 11 3 20t11 17 20 7q0-6 1-20t1-31 2-30 1-20q0-2 3-10t7-18 7-18 3-11q0-3-2-6t-6-6-6-5-6-3q-13 17-21 30t-12 27-5 26-1 32ZM19 604q0 13 1 32t8 36 18 30 30 13V545q-27 0-42 16t-15 43Z"/><glyph unicode="”" glyph-name="quotedblright" horiz-adv-x="250" d="M19 634q0 4 7 11t12 7q31-18 45-49t14-66q0-8-1-18t-4-19-9-16-16-6h-4q-3 0-5 2-1 7-3 23t-6 35-6 34-5 23q0 2-3 7t-6 12-7 12-3 8Zm111 25q28 0 47-17t30-43 17-52 5-48h-37q-2 24-12 44t-21 39-20 37-9 40Z"/><glyph unicode="„" glyph-name="quotedblbase" horiz-adv-x="216" d="M133 63v19q0 11 3 20t11 17 20 7q0-6 1-20t1-31 2-30 1-20q0-2 3-10t7-18 7-18 3-11q0-3-2-6t-6-6-6-5-6-3q-13 17-21 30T139 5t-5 27-1 31ZM22 95q2 23 4 41t5 27 7 6 10-24 12-62T76-25q-13 0-23 14T36 22 25 61t-3 34Z"/><glyph unicode="•" glyph-name="bullet" horiz-adv-x="192" d="M60 223q-4 15 0 27t11 23 17 15 17 5q7 0 17-4t18-12 12-19 1-27q-2-7-7-15t-12-16-15-13-16-6q-16 0-27 14t-16 28Z"/><glyph unicode="‹" glyph-name="guilsinglleft" horiz-adv-x="360" d="M32 163v5q0 3 2 4l211 288h23q0-24-10-51t-27-53-38-52-40-46-36-39-26-27v-38q9-3 25-10t38-17 43-20 44-20 37-18 24-11q3-2 9-7t12-11 11-12 7-9q-6-12-12-16t-16-4q-8 0-32 11t-55 27-65 36-62 38-48 33-19 19Z"/><glyph unicode="›" glyph-name="guilsinglright" horiz-adv-x="326" d="M259 268 29 460v58q8-7 24-20t38-31 43-36 44-35 37-30 26-20q9-7 22-12t25-13 22-17 9-25v-5q0-3-2-6-7-9-20-28t-30-44-36-52-36-52-30-44-20-29q-9-11-17-17t-22-7v43l153 230Z"/></font>
</defs>
</svg>
