<svg xmlns="http://www.w3.org/2000/svg" width="78.713" height="50.652"><g data-paper-data="{&quot;isPaintingLayer&quot;:true}" stroke-width="0" stroke-miterlimit="10" style="mix-blend-mode:normal"><path d="M30.85 21.566a1.378 1.378 0 0 1-.645.365c-.203.378-.59.64-1.17.596-6.746-.508-13.565-2.71-19.338-6.247-2.267-1.39-4.695-2.98-6.327-5.12A19.685 19.685 0 0 1 .763 6.533C.177 5.065-.46 2.978.47 1.506 1.63-.331 3.956-.183 5.803.363c4.242 1.254 5.11 6.628 8.14 9.434.275-1.207.31-2.563.558-3.692.32-1.461 1.67-3.455 3.272-1.899.736.715 1.122 1.783 1.477 2.72.607 1.597.454 2.768.364 4.416-.061 1.104 1.463 2.214 2.05.935.125-.273.222-.559.303-.848.02-.068.063-.556.104-.621-.061-.21-.172-.61-.22-.765-.512-1.653-1.425-4.395.78-5.238 2.678-1.025 4.18 1.898 4.481 4.018.197 1.388.312 2.766.45 4.159.139 1.396.534 2.356 1.692 3.132 1.995 1.335 3.822 3.297 1.596 5.452zm18.608-5.452c1.158-.776 1.554-1.736 1.693-3.132.138-1.393.253-2.771.45-4.159.3-2.12 1.802-5.043 4.48-4.018 2.205.843 1.292 3.585.78 5.238-.048.156-.159.555-.22.765.041.065.085.553.104.621.08.289.177.575.303.848.587 1.279 2.112.17 2.051-.935-.092-1.649-.244-2.82.363-4.417.355-.936.74-2.004 1.477-2.719 1.602-1.556 2.951.438 3.273 1.899.248 1.129.284 2.485.56 3.692C67.8 6.991 68.667 1.617 72.91.363c1.846-.546 4.174-.695 5.332 1.143.93 1.471.293 3.56-.293 5.027a19.614 19.614 0 0 1-2.607 4.628c-1.631 2.139-4.059 3.729-6.326 5.119-5.773 3.538-12.592 5.74-19.338 6.247-.58.044-.967-.218-1.17-.596a1.37 1.37 0 0 1-.644-.365c-2.227-2.155-.4-4.117 1.594-5.452z" fill="#010101"/><path d="M56.22 38.501c0 3.352-1.871 6.39-4.895 8.59-3.023 2.2-7.199 3.56-11.807 3.56-4.609 0-8.785-1.36-11.809-3.56-3.024-2.2-4.895-5.237-4.895-8.59 0-3.078 1.59-5.883 4.19-8.026-.044-.595-.069-1.2-.069-1.811 0-4.446 1.214-8.5 3.207-11.57-1-.178-2.063-.726-2.96-1.612-1.828-1.802-2.278-4.309-1.005-5.6 1.273-1.29 3.786-.876 5.613.927.826.815 1.368 1.774 1.599 2.7 1.813-1.4 3.903-2.2 6.128-2.2 2.123 0 4.122.73 5.877 2.01.255-.866.776-1.75 1.548-2.51 1.826-1.802 4.34-2.217 5.612-.926 1.273 1.29.824 3.797-1.004 5.6-.818.806-1.773 1.333-2.693 1.554 2.015 3.077 3.241 7.154 3.241 11.627 0 .612-.024 1.216-.07 1.812 2.6 2.142 4.192 4.947 4.193 8.025z" fill="#764e2a"/><path d="M34.456 20.521c.438 0 .836.195 1.124.509.288.314.466.748.466 1.227 0 .478-.178.913-.466 1.226a1.52 1.52 0 0 1-1.124.509c-.44 0-.837-.195-1.125-.509a1.813 1.813 0 0 1-.466-1.226c0-.479.178-.913.466-1.227a1.522 1.522 0 0 1 1.125-.509zm10.846 0c.439 0 .837.195 1.124.509.29.314.467.748.467 1.227 0 .478-.178.913-.467 1.226a1.518 1.518 0 0 1-1.124.509 1.52 1.52 0 0 1-1.124-.509 1.807 1.807 0 0 1-.466-1.226c0-.479.177-.913.466-1.227a1.52 1.52 0 0 1 1.124-.509z" fill="#010101"/><path d="M52.175 46.019c0 .139-.006.276-.013.413-3.064 2.58-7.59 4.215-12.645 4.215-5.054 0-9.581-1.635-12.644-4.215a7.868 7.868 0 0 1-.014-.413c0-5.283 5.667-9.564 12.658-9.564s12.658 4.281 12.658 9.564z" fill="#c2b59c"/><path d="M39.517 29.777c1.038 0 1.98.47 2.661 1.23.682.758 1.103 1.807 1.103 2.964s-.421 2.206-1.103 2.965c-.681.76-1.623 1.229-2.661 1.229s-1.979-.47-2.66-1.229c-.682-.76-1.103-1.808-1.103-2.965 0-1.157.421-2.206 1.102-2.965.682-.759 1.623-1.229 2.661-1.229z" fill="#ec2227"/><path d="M47.406 43.374c0 2.612-3.533 4.728-7.889 4.728-4.357 0-7.889-2.116-7.889-4.728 0-2.612 3.532-2.23 7.889-2.23 4.356 0 7.889-.381 7.889 2.23z" fill="#fff"/></g></svg>